<svg xmlns="http://www.w3.org/2000/svg" viewBox="0 0 864.41 998.13"><defs><style>.cls-1{fill:#f5d326;}.cls-2{fill:#efb025;}.cls-3{fill:#d2dfe2;}.cls-4{fill:#f4d422;}.cls-5{fill:#202021;}.cls-6{fill:#392b1b;}</style></defs><g id="Layer_2" data-name="Layer 2"><g id="Layer_1-2" data-name="Layer 1"><polygon class="cls-1" points="451.28 234.81 413.14 234.81 394.07 267.85 413.14 300.88 451.28 300.88 470.35 267.85 451.28 234.81"/><path class="cls-2" d="M451.27,305.51H413.14a4.6,4.6,0,0,1-4-2.32l-19.07-33a4.59,4.59,0,0,1,0-4.64l19.07-33a4.62,4.62,0,0,1,4-2.32h38.13a4.65,4.65,0,0,1,4,2.32l19.07,33a4.63,4.63,0,0,1,0,4.64l-19.07,33A4.63,4.63,0,0,1,451.27,305.51Zm-35.45-9.27h32.77l16.4-28.4-16.4-28.38H415.82l-16.4,28.38Z"/><polygon class="cls-1" points="451.28 300.88 413.14 300.88 394.07 333.91 413.14 366.94 451.28 366.94 470.35 333.91 451.28 300.88"/><path class="cls-2" d="M451.27,371.58H413.14a4.62,4.62,0,0,1-4-2.32l-19.07-33a4.59,4.59,0,0,1,0-4.64l19.07-33a4.6,4.6,0,0,1,4-2.32h38.13a4.63,4.63,0,0,1,4,2.32l19.07,33a4.63,4.63,0,0,1,0,4.64l-19.07,33A4.65,4.65,0,0,1,451.27,371.58Zm-35.45-9.28h32.77L465,333.91l-16.4-28.4H415.82l-16.4,28.4Z"/><polygon class="cls-1" points="394.07 267.85 355.93 267.85 336.86 300.88 355.93 333.91 394.07 333.91 413.14 300.88 394.07 267.85"/><path class="cls-2" d="M394.07,338.55H355.93a4.65,4.65,0,0,1-4-2.32l-19.07-33a4.62,4.62,0,0,1,0-4.63l19.07-33a4.65,4.65,0,0,1,4-2.32h38.14a4.62,4.62,0,0,1,4,2.32l19.07,33a4.57,4.57,0,0,1,0,4.63l-19.07,33A4.62,4.62,0,0,1,394.07,338.55Zm-35.46-9.28h32.78l16.4-28.4-16.4-28.39H358.61l-16.4,28.39Z"/><polygon class="cls-1" points="508.49 267.85 470.35 267.85 451.28 300.88 470.35 333.91 508.49 333.91 527.56 300.88 508.49 267.85"/><path class="cls-2" d="M508.49,338.55H470.34a4.65,4.65,0,0,1-4-2.32l-19.07-33a4.62,4.62,0,0,1,0-4.63l19.07-33a4.65,4.65,0,0,1,4-2.32h38.15a4.62,4.62,0,0,1,4,2.32l19.07,33a4.57,4.57,0,0,1,0,4.63l-19.07,33A4.62,4.62,0,0,1,508.49,338.55ZM473,329.27h32.78l16.39-28.4-16.39-28.39H473l-16.4,28.39Z"/><polygon class="cls-3" points="393.98 267.85 355.84 267.85 336.77 300.88 355.84 333.91 393.98 333.91 413.05 300.88 393.98 267.85"/><polygon class="cls-3" points="508.57 267.85 470.43 267.85 451.36 300.88 470.43 333.91 508.57 333.91 527.64 300.88 508.57 267.85"/><polygon class="cls-4" points="451.28 300.88 413.14 300.88 394.07 333.91 413.14 366.94 451.28 366.94 470.35 333.91 451.28 300.88"/><polygon class="cls-4" points="451.28 234.81 413.14 234.81 394.07 267.85 413.14 300.88 451.28 300.88 470.35 267.85 451.28 234.81"/><polygon class="cls-4" points="470.35 333.91 432.21 399.97 394.07 333.91 470.35 333.91"/><line class="cls-1" x1="413.14" y1="366.94" x2="451.28" y2="366.94"/><path class="cls-5" d="M531.65,298.56l-19.07-33a4.62,4.62,0,0,0-4-2.32H473l-16.41-28.41L473,206.42h16.44a4.64,4.64,0,1,0,0-9.27H470.36a4.62,4.62,0,0,0-4,2.31l-17.79,30.72H415.84l-17.78-30.71a4.6,4.6,0,0,0-4-2.32H374.94a4.64,4.64,0,1,0,0,9.27h16.44L407.8,234.8l-16.4,28.4H355.84a4.64,4.64,0,0,0-4,2.32l-19.07,33a4.62,4.62,0,0,0,0,4.63l19.07,33a4.64,4.64,0,0,0,4,2.32H391.4l36.79,63.73a4.63,4.63,0,0,0,8,0l19.07-33h0L473,338.55h35.55a4.62,4.62,0,0,0,4-2.32l19.07-33A4.57,4.57,0,0,0,531.65,298.56ZM448.59,362.3H415.82l-8.46-14.64-5.26-9.11h60.21l-12.53,21.7Zm0-56.79,13.72,23.76H402.1l13.72-23.76Zm-32.77-66h32.77L465,267.84l-16.4,28.4H415.82l-16.4-28.4Zm-73.69,61.41,16.4-28.39H391.3l16.39,28.39-16.39,28.4H358.53Zm90.07,89.82-11-19.11h22.06Zm73.69-61.42H473.11l-16.4-28.4,16.4-28.39h32.78l16.39,28.39Z"/><polygon class="cls-1" points="451.28 631.18 413.14 631.18 394.07 664.21 413.14 697.24 451.28 697.24 470.35 664.21 451.28 631.18"/><path class="cls-2" d="M451.27,701.88H413.14a4.62,4.62,0,0,1-4-2.32l-19.07-33a4.59,4.59,0,0,1,0-4.64l19.07-33a4.62,4.62,0,0,1,4-2.32h38.13a4.65,4.65,0,0,1,4,2.32l19.07,33a4.63,4.63,0,0,1,0,4.64l-19.07,33A4.65,4.65,0,0,1,451.27,701.88Zm-35.45-9.28h32.77L465,664.22l-16.4-28.4H415.82l-16.4,28.4Z"/><polygon class="cls-1" points="451.28 697.24 413.14 697.24 394.07 730.27 413.14 763.3 451.28 763.3 470.35 730.27 451.28 697.24"/><path class="cls-2" d="M451.27,767.94H413.14a4.6,4.6,0,0,1-4-2.32l-19.07-33a4.59,4.59,0,0,1,0-4.64l19.07-33a4.62,4.62,0,0,1,4-2.32h38.13a4.65,4.65,0,0,1,4,2.32l19.07,33a4.63,4.63,0,0,1,0,4.64l-19.07,33A4.63,4.63,0,0,1,451.27,767.94Zm-35.45-9.27h32.77l16.4-28.4-16.4-28.39H415.82l-16.4,28.39Z"/><polygon class="cls-1" points="394.07 664.21 355.93 664.21 336.86 697.24 355.93 730.27 394.07 730.27 413.14 697.24 394.07 664.21"/><path class="cls-2" d="M394.07,734.91H355.93a4.65,4.65,0,0,1-4-2.32l-19.07-33a4.63,4.63,0,0,1,0-4.64l19.07-33a4.63,4.63,0,0,1,4-2.32h38.14a4.6,4.6,0,0,1,4,2.32l19.07,33a4.59,4.59,0,0,1,0,4.64l-19.07,33A4.62,4.62,0,0,1,394.07,734.91Zm-35.46-9.28h32.78l16.4-28.39-16.4-28.39H358.61l-16.4,28.39Z"/><polygon class="cls-1" points="508.49 664.21 470.35 664.21 451.28 697.24 470.35 730.27 508.49 730.27 527.56 697.24 508.49 664.21"/><path class="cls-2" d="M508.49,734.91H470.34a4.65,4.65,0,0,1-4-2.32l-19.07-33a4.63,4.63,0,0,1,0-4.64l19.07-33a4.63,4.63,0,0,1,4-2.32h38.15a4.6,4.6,0,0,1,4,2.32l19.07,33a4.59,4.59,0,0,1,0,4.64l-19.07,33A4.62,4.62,0,0,1,508.49,734.91ZM473,725.63h32.78l16.39-28.39-16.39-28.39H473l-16.4,28.39Z"/><polygon class="cls-3" points="393.98 664.23 355.84 664.23 336.77 697.26 355.84 730.29 393.98 730.29 413.05 697.26 393.98 664.23"/><polygon class="cls-3" points="508.57 664.23 470.43 664.23 451.36 697.26 470.43 730.29 508.57 730.29 527.64 697.26 508.57 664.23"/><polygon class="cls-4" points="451.28 697.26 413.14 697.26 394.07 730.29 413.14 763.32 451.28 763.32 470.35 730.29 451.28 697.26"/><polygon class="cls-4" points="451.28 631.2 413.14 631.2 394.07 664.23 413.14 697.26 451.28 697.26 470.35 664.23 451.28 631.2"/><polygon class="cls-4" points="470.35 730.29 432.21 796.35 394.07 730.29 470.35 730.29"/><line class="cls-1" x1="413.14" y1="763.32" x2="451.28" y2="763.32"/><path class="cls-5" d="M531.65,694.94l-19.07-33a4.6,4.6,0,0,0-4-2.32H473L456.6,631.15,473,602.77h16.44a4.64,4.64,0,0,0,0-9.28H470.36a4.62,4.62,0,0,0-4,2.31l-17.8,30.75H415.86l-17.8-30.74a4.6,4.6,0,0,0-4-2.32H374.94a4.64,4.64,0,0,0,0,9.28h16.44l16.43,28.39L391.4,659.59H355.84a4.62,4.62,0,0,0-4,2.32l-19.07,33a4.63,4.63,0,0,0,0,4.64l19.07,33a4.64,4.64,0,0,0,4,2.32H391.4l36.79,63.74a4.63,4.63,0,0,0,8,0l19.07-33h0L473,734.93h35.55a4.62,4.62,0,0,0,4-2.32l19.07-33A4.59,4.59,0,0,0,531.65,694.94Zm-83.06,63.74H415.82L407.36,744l-5.26-9.11h60.21l-12.53,21.7Zm0-56.78,13.72,23.75H402.1l13.72-23.75Zm-32.77-66.07h32.77L465,664.22l-16.4,28.4H415.82l-16.4-28.4Zm-73.69,61.43,16.4-28.4H391.3l16.39,28.4L391.3,725.65H358.53Zm90.07,89.81-11-19.11h22.06Zm73.69-61.42H473.11l-16.4-28.39,16.4-28.4h32.78l16.39,28.4Z"/><polygon class="cls-1" points="451.28 433 413.14 433 394.07 466.03 413.14 499.06 451.28 499.06 470.35 466.03 451.28 433"/><path class="cls-2" d="M451.27,503.7H413.14a4.62,4.62,0,0,1-4-2.32l-19.07-33a4.59,4.59,0,0,1,0-4.64l19.07-33a4.62,4.62,0,0,1,4-2.32h38.13a4.65,4.65,0,0,1,4,2.32l19.07,33a4.63,4.63,0,0,1,0,4.64l-19.07,33A4.65,4.65,0,0,1,451.27,503.7Zm-35.45-9.28h32.77L465,466l-16.4-28.4H415.82L399.42,466Z"/><polygon class="cls-1" points="451.28 499.06 413.14 499.06 394.07 532.09 413.14 565.12 451.28 565.12 470.35 532.09 451.28 499.06"/><path class="cls-2" d="M451.27,569.76H413.14a4.62,4.62,0,0,1-4-2.32l-19.07-33a4.57,4.57,0,0,1,0-4.63l19.07-33a4.62,4.62,0,0,1,4-2.32h38.13a4.65,4.65,0,0,1,4,2.32l19.07,33a4.62,4.62,0,0,1,0,4.63l-19.07,33A4.65,4.65,0,0,1,451.27,569.76Zm-35.45-9.28h32.77L465,532.09l-16.4-28.39H415.82l-16.4,28.39Z"/><polygon class="cls-1" points="394.07 466.03 355.93 466.03 336.86 499.06 355.93 532.09 394.07 532.09 413.14 499.06 394.07 466.03"/><path class="cls-2" d="M394.07,536.72H355.93a4.63,4.63,0,0,1-4-2.32l-19.07-33a4.63,4.63,0,0,1,0-4.64l19.07-33a4.65,4.65,0,0,1,4-2.32h38.14a4.62,4.62,0,0,1,4,2.32l19.07,33a4.59,4.59,0,0,1,0,4.64l-19.07,33A4.6,4.6,0,0,1,394.07,536.72Zm-35.46-9.27h32.78l16.4-28.39-16.4-28.39H358.61l-16.4,28.39Z"/><polygon class="cls-1" points="508.49 466.03 470.35 466.03 451.28 499.06 470.35 532.09 508.49 532.09 527.56 499.06 508.49 466.03"/><path class="cls-2" d="M508.49,536.72H470.34a4.63,4.63,0,0,1-4-2.32l-19.07-33a4.63,4.63,0,0,1,0-4.64l19.07-33a4.65,4.65,0,0,1,4-2.32h38.15a4.62,4.62,0,0,1,4,2.32l19.07,33a4.59,4.59,0,0,1,0,4.64l-19.07,33A4.6,4.6,0,0,1,508.49,536.72ZM473,527.45h32.78l16.39-28.39-16.39-28.39H473l-16.4,28.39Z"/><line class="cls-1" x1="413.14" y1="565.14" x2="451.28" y2="565.14"/><path class="cls-6" d="M451.27,569.77H413.14a4.64,4.64,0,1,1,0-9.27h38.13a4.64,4.64,0,1,1,0,9.27Z"/><polygon class="cls-3" points="393.98 466.04 355.84 466.04 336.77 499.07 355.84 532.11 393.98 532.11 413.05 499.07 393.98 466.04"/><polygon class="cls-3" points="508.57 466.04 470.43 466.04 451.36 499.07 470.43 532.11 508.57 532.11 527.64 499.07 508.57 466.04"/><polygon class="cls-4" points="451.28 499.07 413.14 499.07 394.07 532.11 413.14 565.13 451.28 565.13 470.35 532.11 451.28 499.07"/><polygon class="cls-4" points="451.28 433.01 413.14 433.01 394.07 466.04 413.14 499.07 451.28 499.07 470.35 466.04 451.28 433.01"/><polygon class="cls-4" points="470.35 532.11 432.21 598.17 394.07 532.11 470.35 532.11"/><line class="cls-1" x1="413.14" y1="565.1" x2="451.28" y2="565.1"/><path class="cls-5" d="M531.65,496.75l-19.07-33a4.62,4.62,0,0,0-4-2.32H473L456.6,433,473,404.59h16.44a4.64,4.64,0,1,0,0-9.27H470.36a4.59,4.59,0,0,0-4,2.31l-17.8,30.75H415.86l-17.8-30.74a4.58,4.58,0,0,0-4-2.32H374.94a4.64,4.64,0,1,0,0,9.27h16.44L407.81,433,391.4,461.41H355.84a4.64,4.64,0,0,0-4,2.32l-19.07,33a4.63,4.63,0,0,0,0,4.64l19.07,33a4.64,4.64,0,0,0,4,2.32H391.4l36.79,63.75a4.63,4.63,0,0,0,8,0l19.08-33L473,536.74h35.55a4.62,4.62,0,0,0,4-2.32l19.07-33A4.59,4.59,0,0,0,531.65,496.75Zm-76.31,52.06-6.73,11.66h-32.8l-9.76-16.9-3.95-6.83h60.21ZM402.1,527.46l13.72-23.75h32.77l13.72,23.75Zm13.72-89.81h32.77l16.4,28.4-16.4,28.38H415.82l-16.4-28.38Zm-73.69,61.42,16.4-28.38H391.3l16.39,28.38L391.3,527.46H358.53Zm90.07,89.82-11-19.12h22.07Zm73.69-61.43H473.11l-16.4-28.39,16.4-28.38h32.78l16.39,28.38Z"/><polygon class="cls-4" points="0 249.53 432.21 64.27 808.75 281.67 808.75 684.33 864.41 684.33 864.41 249.53 432.21 0 0 249.53"/><polygon class="cls-4" points="864.41 748.6 432.21 933.86 55.66 716.46 55.66 313.8 0 313.8 0 748.6 432.21 998.13 864.41 748.6"/></g></g></svg>