<svg xmlns="http://www.w3.org/2000/svg" viewBox="0 0 443.41 512"><defs><style>.cls-1{fill:#f4d422;}.cls-2{fill:#f5d326;}.cls-3{fill:#efb025;}.cls-4{fill:#d2dfe2;}.cls-5{fill:#202021;}</style></defs><g id="Layer_2" data-name="Layer 2"><g id="Layer_1-2" data-name="Layer 1"><polygon class="cls-1" points="443.4 128 221.7 0 0 128 0 384 221.7 512 443.4 384 443.4 128"/><polygon class="cls-2" points="246.28 170.88 197.13 170.88 172.56 213.44 197.13 256 246.28 256 270.85 213.44 246.28 170.88"/><path class="cls-3" d="M246.27,262H197.14a6,6,0,0,1-5.18-3l-24.57-42.56a6,6,0,0,1,0-6L192,167.9a6,6,0,0,1,5.18-3h49.13a6,6,0,0,1,5.17,3L276,210.45a6,6,0,0,1,0,6L251.44,259A6,6,0,0,1,246.27,262Zm-45.68-12h42.23L264,213.44l-21.13-36.58H200.59l-21.13,36.58Z"/><polygon class="cls-2" points="246.28 256 197.13 256 172.56 298.56 197.13 341.12 246.28 341.12 270.85 298.56 246.28 256"/><path class="cls-3" d="M246.27,347.1H197.14a6,6,0,0,1-5.18-3l-24.57-42.56a6,6,0,0,1,0-6L192,253a6,6,0,0,1,5.18-3h49.13a6,6,0,0,1,5.17,3L276,295.57a6,6,0,0,1,0,6l-24.58,42.56A6,6,0,0,1,246.27,347.1Zm-45.68-12h42.23L264,298.56,242.82,262H200.59l-21.13,36.58Z"/><polygon class="cls-2" points="172.56 213.44 123.41 213.44 98.84 256 123.41 298.56 172.56 298.56 197.13 256 172.56 213.44"/><path class="cls-3" d="M172.56,304.54H123.42a6,6,0,0,1-5.18-3L93.67,259a6,6,0,0,1,0-6l24.57-42.56a6,6,0,0,1,5.18-3h49.14a6,6,0,0,1,5.17,3L202.31,253a6,6,0,0,1,0,6l-24.58,42.56A6,6,0,0,1,172.56,304.54Zm-45.69-12h42.24L190.24,256l-21.13-36.59H126.87L105.74,256Z"/><polygon class="cls-2" points="319.99 213.44 270.85 213.44 246.28 256 270.85 298.56 319.99 298.56 344.56 256 319.99 213.44"/><path class="cls-3" d="M320,304.54H270.84a6,6,0,0,1-5.17-3L241.1,259a6,6,0,0,1,0-6l24.57-42.56a6,6,0,0,1,5.17-3H320a6,6,0,0,1,5.17,3L349.74,253a6,6,0,0,1,0,6l-24.58,42.56A6,6,0,0,1,320,304.54Zm-45.69-12h42.24L337.67,256l-21.13-36.59H274.3L253.17,256Z"/><polygon class="cls-4" points="172.45 213.44 123.31 213.44 98.74 256 123.31 298.56 172.45 298.56 197.02 256 172.45 213.44"/><polygon class="cls-4" points="320.1 213.44 270.95 213.44 246.38 256 270.95 298.56 320.1 298.56 344.67 256 320.1 213.44"/><polygon class="cls-1" points="246.28 256 197.13 256 172.56 298.56 197.13 341.12 246.28 341.12 270.85 298.56 246.28 256"/><polygon class="cls-1" points="246.28 170.88 197.13 170.88 172.56 213.44 197.13 256 246.28 256 270.85 213.44 246.28 170.88"/><polygon class="cls-1" points="270.85 298.56 221.7 383.68 172.56 298.56 270.85 298.56"/><line class="cls-2" x1="197.13" y1="341.12" x2="246.27" y2="341.12"/><path class="cls-5" d="M349.84,253l-24.57-42.56a6,6,0,0,0-5.17-3H274.29l-21.14-36.61,21.16-36.55h21.18a6,6,0,0,0,0-12H270.87a6,6,0,0,0-5.17,3l-22.93,39.59H200.61l-22.9-39.58a6,6,0,0,0-5.17-3H147.92a6,6,0,1,0,0,12h21.17l21.17,36.56-21.14,36.6H123.31a6,6,0,0,0-5.17,3L93.56,253a6,6,0,0,0,0,6l24.58,42.56a6,6,0,0,0,5.17,3h45.81l47.41,82.13a6,6,0,0,0,10.34,0l24.57-42.55h0l22.85-39.57H320.1a6,6,0,0,0,5.17-3L349.84,259A6,6,0,0,0,349.84,253Zm-107,82.14H200.59l-10.9-18.87-6.77-11.74h77.57l-16.15,28Zm0-73.17,17.68,30.61H182.92L200.59,262Zm-42.22-85.12h42.22l21.13,36.58L242.81,250H200.59l-21.13-36.58Zm-95,79.14,21.13-36.59H169L190.12,256,169,292.59H126.76ZM221.7,371.72,207.49,347.1h28.43Zm94.94-79.13H274.4L253.27,256l21.13-36.59h42.24L337.77,256Z"/></g></g></svg>