<svg xmlns="http://www.w3.org/2000/svg" xmlns:xlink="http://www.w3.org/1999/xlink" viewBox="0 0 667.01 397.3"><defs><style>.cls-1{fill:none;}.cls-2{clip-path:url(#clip-path);}.cls-3{fill:#f4d422;}.cls-4{fill:#efc426;}.cls-5{fill:#d1e0e5;}.cls-6{fill:#f5d326;}.cls-7{fill:#202021;}.cls-8{fill:#fff;}</style><clipPath id="clip-path" transform="translate(0 13.25)"><polygon class="cls-1" points="239.59 55.5 239.59 167.06 333.51 221.28 427.42 167.06 427.42 55.5 333.51 1.28 239.59 55.5"/></clipPath></defs><g id="Layer_2" data-name="Layer 2"><g id="Layer_1-2" data-name="Layer 1"><g class="cls-2"><polygon class="cls-3" points="445.59 27.71 450.68 18.89 445.59 10.06 435.4 10.06 430.31 1.24 420.12 1.24 415.02 10.06 404.83 10.06 399.74 1.24 389.55 1.24 384.45 10.06 374.26 10.06 369.17 1.24 358.98 1.24 353.88 10.06 343.7 10.06 338.6 1.24 328.41 1.24 323.32 10.06 313.13 10.06 308.03 1.24 297.84 1.24 292.75 10.06 282.56 10.06 277.47 1.24 267.28 1.24 262.18 10.06 251.99 10.06 246.9 1.24 236.71 1.24 231.61 10.06 221.42 10.06 216.33 18.89 221.42 27.71 216.33 36.54 221.42 45.36 216.33 54.18 221.42 63.01 216.33 71.83 221.42 80.66 216.33 89.48 221.42 98.31 216.33 107.13 221.42 115.95 216.33 124.78 221.42 133.6 216.33 142.43 221.42 151.25 216.33 160.07 221.42 168.9 216.33 177.72 221.42 186.55 216.33 195.37 221.42 204.19 216.33 213.02 221.42 221.84 216.33 230.67 221.42 239.49 216.33 248.32 221.42 257.14 231.61 257.14 236.71 248.32 246.9 248.32 251.99 257.14 262.18 257.14 267.28 248.32 277.47 248.32 282.56 257.14 292.75 257.14 297.84 248.32 308.03 248.32 313.13 257.14 323.32 257.14 328.41 265.96 338.6 265.96 343.7 257.14 353.88 257.14 358.98 248.32 369.17 248.32 374.26 257.14 384.45 257.14 389.55 248.32 399.74 248.32 404.83 257.14 415.02 257.14 420.12 248.32 430.31 248.32 435.4 257.14 445.59 257.14 450.68 248.32 445.59 239.49 450.68 230.67 445.59 221.84 450.68 213.02 445.59 204.19 450.68 195.37 445.59 186.55 450.68 177.72 445.59 168.9 450.68 160.07 445.59 151.25 450.68 142.43 445.59 133.6 450.68 124.78 445.59 115.95 450.68 107.13 445.59 98.31 450.68 89.48 445.59 80.66 450.68 71.83 445.59 63.01 450.68 54.18 445.59 45.36 450.68 36.54 445.59 27.71"/><path class="cls-4" d="M451.75,22.66,447,14.46l4.73-8.21a1.18,1.18,0,0,0,0-1.23l-5.09-8.83a1.24,1.24,0,0,0-1.07-.62h-9.48l-4.73-8.2a1.25,1.25,0,0,0-1.08-.62H420.12a1.25,1.25,0,0,0-1.08.62l-4.73,8.2h-8.77l-4.73-8.2a1.24,1.24,0,0,0-1.07-.62H389.55a1.24,1.24,0,0,0-1.07.62l-4.74,8.2H375l-4.74-8.2a1.24,1.24,0,0,0-1.07-.62H359a1.24,1.24,0,0,0-1.07.62l-4.74,8.2h-8.76l-4.74-8.2a1.24,1.24,0,0,0-1.07-.62H328.41a1.24,1.24,0,0,0-1.07.62l-4.74,8.2h-8.76l-4.73-8.2a1.25,1.25,0,0,0-1.08-.62H297.84a1.24,1.24,0,0,0-1.07.62L292-4.43h-8.77l-4.73-8.2a1.25,1.25,0,0,0-1.08-.62H267.28a1.26,1.26,0,0,0-1.08.62l-4.73,8.2h-8.76L248-12.63a1.24,1.24,0,0,0-1.07-.62H236.71a1.23,1.23,0,0,0-1.07.62l-4.74,8.2h-9.47a1.25,1.25,0,0,0-1.08.62L215.26,5a1.23,1.23,0,0,0,0,1.23L220,14.46l-4.73,8.2a1.25,1.25,0,0,0,0,1.24L220,32.11l-4.73,8.2a1.25,1.25,0,0,0,0,1.24L220,49.76,215.26,58a1.25,1.25,0,0,0,0,1.24L220,67.41l-4.73,8.2a1.25,1.25,0,0,0,0,1.24l4.73,8.2-4.73,8.21a1.25,1.25,0,0,0,0,1.24l4.73,8.2-4.73,8.21a1.25,1.25,0,0,0,0,1.24l4.73,8.2-4.73,8.2a1.25,1.25,0,0,0,0,1.24L220,138l-4.73,8.2a1.25,1.25,0,0,0,0,1.24l4.73,8.21-4.73,8.2a1.25,1.25,0,0,0,0,1.24L220,173.3l-4.73,8.2a1.25,1.25,0,0,0,0,1.24l4.73,8.2-4.73,8.21a1.25,1.25,0,0,0,0,1.24l4.73,8.2-4.73,8.21a1.25,1.25,0,0,0,0,1.24l4.73,8.2-4.73,8.2a1.25,1.25,0,0,0,0,1.24l5.09,8.83a1.25,1.25,0,0,0,1.08.62h10.18a1.23,1.23,0,0,0,1.07-.62l4.74-8.21h8.76l4.74,8.21a1.24,1.24,0,0,0,1.07.62h10.19a1.23,1.23,0,0,0,1.07-.62L268,236.3h8.76l4.74,8.21a1.24,1.24,0,0,0,1.07.62h10.19a1.24,1.24,0,0,0,1.07-.62l4.74-8.21h8.76l4.74,8.21a1.24,1.24,0,0,0,1.07.62h9.47l4.74,8.2a1.22,1.22,0,0,0,1.07.62H338.6a1.22,1.22,0,0,0,1.07-.62l4.74-8.2h9.48a1.24,1.24,0,0,0,1.07-.62l4.73-8.21h8.76l4.74,8.21a1.24,1.24,0,0,0,1.07.62h10.19a1.25,1.25,0,0,0,1.08-.62l4.73-8.21H399l4.74,8.21a1.24,1.24,0,0,0,1.07.62H415a1.24,1.24,0,0,0,1.07-.62l4.74-8.21h8.76l4.74,8.21a1.24,1.24,0,0,0,1.07.62h10.19a1.24,1.24,0,0,0,1.07-.62l5.09-8.83a1.2,1.2,0,0,0,0-1.24l-4.73-8.2,4.73-8.2a1.2,1.2,0,0,0,0-1.24L447,208.59l4.73-8.2a1.2,1.2,0,0,0,0-1.24L447,190.94l4.73-8.2a1.2,1.2,0,0,0,0-1.24L447,173.3l4.73-8.21a1.2,1.2,0,0,0,0-1.24l-4.73-8.2,4.73-8.21a1.2,1.2,0,0,0,0-1.24L447,138l4.73-8.21a1.2,1.2,0,0,0,0-1.24l-4.73-8.2,4.73-8.2a1.2,1.2,0,0,0,0-1.24L447,102.7l4.73-8.2a1.2,1.2,0,0,0,0-1.24L447,85.05l4.73-8.2a1.2,1.2,0,0,0,0-1.24L447,67.41l4.73-8.21a1.2,1.2,0,0,0,0-1.24L447,49.76l4.73-8.21a1.2,1.2,0,0,0,0-1.24L447,32.11l4.73-8.21A1.2,1.2,0,0,0,451.75,22.66Zm-2.5-17-4.38,7.59h-8.75l-4.38-7.59,4.38-7.58h8.75ZM429.59,24.52,434,32.11l-4.38,7.58h-8.76l-4.38-7.58,4.38-7.59Zm-8.76,174-4.38-7.59,4.38-7.58h8.76l4.38,7.58-4.38,7.59Zm-183.41,0L233,190.94l4.38-7.58h8.76l4.38,7.58-4.38,7.59Zm8.76-156.36,4.38,7.59-4.38,7.58h-8.76L233,49.76l4.38-7.59ZM414.3,68.64l4.38,7.59-4.38,7.58h-8.75l-4.38-7.58,4.38-7.59Zm-8.75,68.12-4.38-7.59,4.38-7.58h8.75l4.38,7.58-4.38,7.59Zm-152.84,0-4.38-7.59,4.38-7.58h8.76l4.38,7.58-4.38,7.59Zm8.76-50.47,4.38,7.59-4.38,7.58h-8.76l-4.38-7.58,4.38-7.59ZM268,127.93l-4.38-7.58,4.38-7.58h8.76l4.38,7.58-4.38,7.58Zm15.29-8.82-4.38-7.58,4.38-7.59H292l4.38,7.59L292,119.11Zm15.28,8.82-4.38-7.58,4.38-7.58h8.76l4.38,7.58-4.38,7.58Zm15.29-8.82-4.39-7.58,4.39-7.59h8.75l4.38,7.59-4.38,7.58Zm24-6.34,4.39,7.58-4.39,7.58h-8.75l-4.38-7.58,4.38-7.58Zm0-17.65,4.39,7.58-4.39,7.59h-8.75l-4.38-7.59,4.38-7.58Zm-8.75,50.46L324.75,138l4.38-7.59h8.75l4.39,7.59-4.39,7.58Zm15.28-26.47L340,111.53l4.38-7.59h8.76l4.38,7.59-4.38,7.58Zm15.29,8.82-4.38-7.58,4.38-7.58h8.75l4.38,7.58-4.38,7.58ZM375,119.11l-4.38-7.58,4.38-7.59h8.76l4.38,7.59-4.38,7.58Zm15.28,8.82-4.38-7.58,4.38-7.58H399l4.38,7.58L399,127.93ZM399,95.12l4.38,7.58L399,110.29h-8.76l-4.38-7.59,4.38-7.58Zm-15.28-8.83,4.38,7.59-4.38,7.58H375l-4.38-7.58L375,86.29Zm-15.29,8.83,4.38,7.58-4.38,7.59H359.7l-4.38-7.59,4.38-7.58Zm-15.28-8.83,4.38,7.59-4.38,7.58h-8.76L340,93.88l4.38-7.59Zm-15.29-8.82,4.39,7.58-4.39,7.59h-8.75l-4.38-7.59,4.38-7.58ZM322.6,86.29,327,93.88l-4.38,7.58h-8.75l-4.39-7.58,4.39-7.59Zm-15.28,8.83,4.38,7.58-4.38,7.59h-8.76l-4.38-7.59,4.38-7.58ZM292,86.29l4.38,7.59L292,101.46h-8.75l-4.38-7.58,4.38-7.59Zm-15.28,8.83,4.38,7.58-4.38,7.59H268l-4.38-7.59L268,95.12Zm-15.28,8.82,4.38,7.59-4.38,7.58h-8.76l-4.38-7.58,4.38-7.59ZM268,145.58,263.61,138l4.38-7.59h8.76l4.38,7.59-4.38,7.58Zm15.29-8.82-4.38-7.59,4.38-7.58H292l4.38,7.58L292,136.76Zm15.28,8.82L294.18,138l4.38-7.59h8.76L311.7,138l-4.38,7.58Zm15.29-8.82-4.39-7.59,4.39-7.58h8.75l4.38,7.58-4.38,7.59Zm15.28,26.47-4.38-7.58,4.38-7.59h8.75l4.39,7.59-4.39,7.58Zm15.28-26.47L340,129.17l4.38-7.58h8.76l4.38,7.58-4.38,7.59Zm15.29,8.82L355.32,138l4.38-7.59h8.75l4.38,7.59-4.38,7.58ZM375,136.76l-4.38-7.59,4.38-7.58h8.76l4.38,7.58-4.38,7.59Zm15.28,8.82L385.88,138l4.38-7.59H399L403.4,138,399,145.58Zm15.29-26.47-4.38-7.58,4.38-7.59h8.75l4.38,7.59-4.38,7.58Zm0-17.65-4.38-7.58,4.38-7.59h8.75l4.38,7.59-4.38,7.58Zm-6.53-24,4.38,7.58L399,92.64h-8.76l-4.38-7.59,4.38-7.58Zm-15.28-8.83,4.38,7.59-4.38,7.58H375l-4.38-7.58L375,68.64Zm-15.29,8.83,4.38,7.58-4.38,7.59H359.7l-4.38-7.59,4.38-7.58Zm-15.28-8.83,4.38,7.59-4.38,7.58h-8.76L340,76.23l4.38-7.59Zm-30.57,0L327,76.23l-4.38,7.58h-8.75l-4.39-7.58,4.39-7.59Zm-15.28,8.83,4.38,7.58-4.38,7.59h-8.76l-4.38-7.59,4.38-7.58ZM292,68.64l4.38,7.59L292,83.81h-8.75l-4.38-7.58,4.38-7.59Zm-15.28,8.83,4.38,7.58-4.38,7.59H268l-4.38-7.59L268,77.47Zm-15.28-8.83,4.38,7.59-4.38,7.58h-8.76l-4.38-7.58,4.38-7.59Zm-8.76,85.77-4.38-7.59,4.38-7.58h8.76l4.38,7.58-4.38,7.59ZM268,163.23l-4.38-7.58,4.38-7.59h8.76l4.38,7.59-4.38,7.58Zm15.29-8.82-4.38-7.59,4.38-7.58H292l4.38,7.58L292,154.41Zm15.28,8.82-4.38-7.58,4.38-7.59h8.76l4.38,7.59-4.38,7.58Zm15.29-8.82-4.39-7.59,4.39-7.58h8.75l4.38,7.58-4.38,7.59Zm15.28,26.47-4.38-7.58,4.38-7.59h8.75l4.39,7.59-4.39,7.58Zm15.28-26.47L340,146.82l4.38-7.58h8.76l4.38,7.58-4.38,7.59Zm15.29,8.82-4.38-7.58,4.38-7.59h8.75l4.38,7.59-4.38,7.58ZM375,154.41l-4.38-7.59,4.38-7.58h8.76l4.38,7.58-4.38,7.59Zm15.28,8.82-4.38-7.58,4.38-7.59H399l4.38,7.59L399,163.23Zm15.29-8.82-4.38-7.59,4.38-7.58h8.75l4.38,7.58-4.38,7.59ZM414.3,51l4.38,7.58-4.38,7.59h-8.75l-4.38-7.59L405.55,51ZM399,59.82l4.38,7.59L399,75h-8.76l-4.38-7.58,4.38-7.59ZM383.74,51l4.38,7.58-4.38,7.59H375l-4.38-7.59L375,51Zm-15.29,8.82,4.38,7.59L368.45,75H359.7l-4.38-7.58,4.38-7.59ZM353.17,51l4.38,7.58-4.38,7.59h-8.76L340,58.58,344.41,51Zm-15.29,8.82,4.39,7.59L337.88,75h-8.75l-4.38-7.58,4.38-7.59ZM322.6,51,327,58.58l-4.38,7.59h-8.75l-4.39-7.59L313.85,51Zm-15.28,8.82,4.38,7.59L307.32,75h-8.76l-4.38-7.58,4.38-7.59ZM292,51l4.38,7.58L292,66.17h-8.75l-4.38-7.59L283.28,51Zm-15.28,8.82,4.38,7.59L276.75,75H268l-4.38-7.58L268,59.82ZM261.47,51l4.38,7.58-4.38,7.59h-8.76l-4.38-7.59L252.71,51Zm-8.76,121.06-4.38-7.59,4.38-7.58h8.76l4.38,7.58-4.38,7.59ZM268,180.88l-4.38-7.58,4.38-7.59h8.76l4.38,7.59-4.38,7.58Zm15.29-8.82-4.38-7.59,4.38-7.58H292l4.38,7.58L292,172.06Zm15.28,8.82-4.38-7.58,4.38-7.59h8.76l4.38,7.59-4.38,7.58Zm15.29-8.82-4.39-7.59,4.39-7.58h8.75l4.38,7.58-4.38,7.59Zm30.56,0L340,164.47l4.38-7.58h8.76l4.38,7.58-4.38,7.59Zm15.29,8.82-4.38-7.58,4.38-7.59h8.75l4.38,7.59-4.38,7.58ZM375,172.06l-4.38-7.59,4.38-7.58h8.76l4.38,7.58-4.38,7.59Zm15.28,8.82-4.38-7.58,4.38-7.59H399l4.38,7.59L399,180.88Zm15.29-8.82-4.38-7.59,4.38-7.58h8.75l4.38,7.58-4.38,7.59ZM414.3,33.35l4.38,7.58-4.38,7.59h-8.75l-4.38-7.59,4.38-7.58ZM399,42.17l4.38,7.59L399,57.34h-8.76l-4.38-7.58,4.38-7.59Zm-15.28-8.82,4.38,7.58-4.38,7.59H375l-4.38-7.59L375,33.35Zm-15.29,8.82,4.38,7.59-4.38,7.58H359.7l-4.38-7.58,4.38-7.59Zm-15.28-8.82,4.38,7.58-4.38,7.59h-8.76L340,40.93l4.38-7.58Zm-15.29,8.82,4.39,7.59-4.39,7.58h-8.75l-4.38-7.58,4.38-7.59ZM322.6,33.35,327,40.93l-4.38,7.59h-8.75l-4.39-7.59,4.39-7.58Zm-15.28,8.82,4.38,7.59-4.38,7.58h-8.76l-4.38-7.58,4.38-7.59ZM292,33.35l4.38,7.58L292,48.52h-8.75l-4.38-7.59,4.38-7.58Zm-15.28,8.82,4.38,7.59-4.38,7.58H268l-4.38-7.58L268,42.17Zm-15.28-8.82,4.38,7.58-4.38,7.59h-8.76l-4.38-7.59,4.38-7.58ZM246.18,59.82l4.38,7.59L246.18,75h-8.76L233,67.41l4.38-7.59Zm0,17.65,4.38,7.58-4.38,7.59h-8.76L233,85.05l4.38-7.58Zm0,17.65,4.38,7.58-4.38,7.59h-8.76L233,102.7l4.38-7.58Zm0,17.65,4.38,7.58-4.38,7.58h-8.76L233,120.35l4.38-7.58Zm0,17.64,4.38,7.59-4.38,7.58h-8.76L233,138l4.38-7.59Zm0,17.65,4.38,7.59-4.38,7.58h-8.76L233,155.65l4.38-7.59Zm0,17.65,4.38,7.59-4.38,7.58h-8.76L233,173.3l4.38-7.59Zm6.53,24-4.38-7.59,4.38-7.59h8.76l4.38,7.59-4.38,7.59ZM268,198.53l-4.38-7.59,4.38-7.58h8.76l4.38,7.58-4.38,7.59Zm15.29-8.82-4.38-7.59,4.38-7.59H292l4.38,7.59L292,189.71Zm15.28,8.82-4.38-7.59,4.38-7.58h8.76l4.38,7.58-4.38,7.59Zm15.29-8.82-4.39-7.59,4.39-7.59h8.75l4.38,7.59-4.38,7.59Zm15.28,8.82-4.38-7.59,4.38-7.58h8.75l4.39,7.58-4.39,7.59Zm15.28-8.82L340,182.12l4.38-7.59h8.76l4.38,7.59-4.38,7.59Zm15.29,8.82-4.38-7.59,4.38-7.58h8.75l4.38,7.58-4.38,7.59ZM375,189.71l-4.38-7.59,4.38-7.59h8.76l4.38,7.59-4.38,7.59Zm15.28,8.82-4.38-7.59,4.38-7.58H399l4.38,7.58L399,198.53Zm15.29-8.82-4.38-7.59,4.38-7.59h8.75l4.38,7.59-4.38,7.59Zm15.28-8.83-4.38-7.58,4.38-7.59h8.76L434,173.3l-4.38,7.58Zm0-17.65-4.38-7.58,4.38-7.59h8.76l4.38,7.59-4.38,7.58Zm0-17.65L416.45,138l4.38-7.59h8.76L434,138l-4.38,7.58Zm0-17.65-4.38-7.58,4.38-7.58h8.76l4.38,7.58-4.38,7.58Zm0-17.64-4.38-7.59,4.38-7.58h8.76L434,102.7l-4.38,7.59Zm0-17.65-4.38-7.59,4.38-7.58h8.76L434,85.05l-4.38,7.59Zm0-17.65-4.38-7.58,4.38-7.59h8.76L434,67.41,429.59,75Zm0-17.65-4.38-7.58,4.38-7.59h8.76L434,49.76l-4.38,7.58ZM414.3,15.7l4.38,7.58-4.38,7.59h-8.75l-4.38-7.59,4.38-7.58ZM399,24.52l4.38,7.59L399,39.69h-8.76l-4.38-7.58,4.38-7.59ZM383.74,15.7l4.38,7.58-4.38,7.59H375l-4.38-7.59L375,15.7Zm-15.29,8.82,4.38,7.59-4.38,7.58H359.7l-4.38-7.58,4.38-7.59ZM353.17,15.7l4.38,7.58-4.38,7.59h-8.76L340,23.28l4.38-7.58Zm-15.29,8.82,4.39,7.59-4.39,7.58h-8.75l-4.38-7.58,4.38-7.59ZM322.6,15.7,327,23.28l-4.38,7.59h-8.75l-4.39-7.59,4.39-7.58Zm-15.28,8.82,4.38,7.59-4.38,7.58h-8.76l-4.38-7.58,4.38-7.59ZM292,15.7l4.38,7.58L292,30.87h-8.75l-4.38-7.59,4.38-7.58Zm-15.28,8.82,4.38,7.59-4.38,7.58H268l-4.38-7.58L268,24.52ZM261.47,15.7l4.38,7.58-4.38,7.59h-8.76l-4.38-7.59,4.38-7.58Zm-15.29,8.82,4.38,7.59-4.38,7.58h-8.76L233,32.11l4.38-7.59Zm-8.76,191.66L233,208.59l4.38-7.58h8.76l4.38,7.58-4.38,7.59Zm15.29-8.83-4.38-7.58,4.38-7.59h8.76l4.38,7.59-4.38,7.58ZM268,216.18l-4.38-7.59L268,201h8.76l4.38,7.58-4.38,7.59Zm15.29-8.83-4.38-7.58,4.38-7.59H292l4.38,7.59L292,207.35Zm15.28,8.83-4.38-7.59,4.38-7.58h8.76l4.38,7.58-4.38,7.59Zm15.29-8.83-4.39-7.58,4.39-7.59h8.75l4.38,7.59-4.38,7.58Zm15.28,8.83-4.38-7.59,4.38-7.58h8.75l4.39,7.58-4.39,7.59Zm15.28-8.83L340,199.77l4.38-7.59h8.76l4.38,7.59-4.38,7.58Zm15.29,8.83-4.38-7.59L359.7,201h8.75l4.38,7.58-4.38,7.59ZM375,207.35l-4.38-7.58,4.38-7.59h8.76l4.38,7.59-4.38,7.58Zm15.28,8.83-4.38-7.59,4.38-7.58H399l4.38,7.58L399,216.18Zm15.29-8.83-4.38-7.58,4.38-7.59h8.75l4.38,7.59-4.38,7.58Zm15.28,8.83-4.38-7.59,4.38-7.58h8.76l4.38,7.58-4.38,7.59ZM429.59,6.87,434,14.46l-4.38,7.59h-8.76l-4.38-7.59,4.38-7.59ZM414.3-1.95l4.38,7.58-4.38,7.59h-8.75l-4.38-7.59,4.38-7.58ZM399,6.87l4.38,7.59L399,22.05h-8.76l-4.38-7.59,4.38-7.59ZM383.74-1.95l4.38,7.58-4.38,7.59H375L370.6,5.63,375-1.95ZM368.45,6.87l4.38,7.59-4.38,7.59H359.7l-4.38-7.59,4.38-7.59ZM353.17-1.95l4.38,7.58-4.38,7.59h-8.76L340,5.63l4.38-7.58ZM337.88,6.87l4.39,7.59-4.39,7.59h-8.75l-4.38-7.59,4.38-7.59ZM322.6-1.95,327,5.63l-4.38,7.59h-8.75l-4.39-7.59,4.39-7.58ZM307.32,6.87l4.38,7.59-4.38,7.59h-8.76l-4.38-7.59,4.38-7.59ZM292-1.95l4.38,7.58L292,13.22h-8.75L278.9,5.63l4.38-7.58ZM276.75,6.87l4.38,7.59-4.38,7.59H268l-4.38-7.59L268,6.87ZM261.47-1.95l4.38,7.58-4.38,7.59h-8.76l-4.38-7.59,4.38-7.58ZM246.18,6.87l4.38,7.59-4.38,7.59h-8.76L233,14.46l4.38-7.59Zm-8.76,227L233,226.24l4.38-7.58h8.76l4.38,7.58-4.38,7.58ZM252.71,225l-4.38-7.58,4.38-7.59h8.76l4.38,7.59L261.47,225ZM268,233.82l-4.38-7.58,4.38-7.58h8.76l4.38,7.58-4.38,7.58ZM283.28,225l-4.38-7.58,4.38-7.59H292l4.38,7.59L292,225Zm15.28,8.82-4.38-7.58,4.38-7.58h8.76l4.38,7.58-4.38,7.58ZM313.85,225l-4.39-7.58,4.39-7.59h8.75l4.38,7.59L322.6,225Zm15.28,8.82-4.38-7.58,4.38-7.58h8.75l4.39,7.58-4.39,7.58ZM344.41,225,340,217.42l4.38-7.59h8.76l4.38,7.59L353.17,225Zm15.29,8.82-4.38-7.58,4.38-7.58h8.75l4.38,7.58-4.38,7.58ZM375,225l-4.38-7.58,4.38-7.59h8.76l4.38,7.59L383.74,225Zm15.28,8.82-4.38-7.58,4.38-7.58H399l4.38,7.58L399,233.82ZM405.55,225l-4.38-7.58,4.38-7.59h8.75l4.38,7.59L414.3,225Zm15.28,8.82-4.38-7.58,4.38-7.58h8.76l4.38,7.58-4.38,7.58Zm0-244.59h8.76L434-3.19,429.59,4.4h-8.76l-4.38-7.59Zm-30.57,0H399l4.38,7.58L399,4.4h-8.76l-4.38-7.59Zm-30.56,0h8.75l4.38,7.58L368.45,4.4H359.7l-4.38-7.59Zm-30.57,0h8.75l4.39,7.58L337.88,4.4h-8.75l-4.38-7.59Zm-30.57,0h8.76l4.38,7.58L307.32,4.4h-8.76l-4.38-7.59Zm-30.57,0h8.76l4.38,7.58L276.75,4.4H268l-4.38-7.59Zm-30.57,0h8.76l4.38,7.58L246.18,4.4h-8.76L233-3.19ZM222.14-1.95h8.76l4.38,7.58-4.38,7.59h-8.76l-4.38-7.59Zm0,17.65h8.76l4.38,7.58-4.38,7.59h-8.76l-4.38-7.59Zm0,17.65h8.76l4.38,7.58-4.38,7.59h-8.76l-4.38-7.59Zm0,17.65h8.76l4.38,7.58-4.38,7.59h-8.76l-4.38-7.59Zm0,17.64h8.76l4.38,7.59-4.38,7.58h-8.76l-4.38-7.58Zm0,17.65h8.76l4.38,7.59-4.38,7.58h-8.76l-4.38-7.58Zm0,17.65h8.76l4.38,7.59-4.38,7.58h-8.76l-4.38-7.58Zm0,17.65h8.76l4.38,7.58-4.38,7.59h-8.76l-4.38-7.59Zm0,17.65h8.76l4.38,7.58-4.38,7.59h-8.76l-4.38-7.59Zm0,17.65h8.76l4.38,7.58-4.38,7.59h-8.76l-4.38-7.59Zm0,17.64h8.76l4.38,7.59-4.38,7.59h-8.76l-4.38-7.59Zm0,17.65h8.76l4.38,7.59-4.38,7.58h-8.76l-4.38-7.58Zm0,17.65h8.76l4.38,7.59L230.9,225h-8.76l-4.38-7.58Zm8.76,32.82h-8.76l-4.38-7.59,4.38-7.58h8.76l4.38,7.58Zm30.57,0h-8.76l-4.38-7.59,4.38-7.58h8.76l4.38,7.58Zm30.56,0h-8.75l-4.38-7.59,4.38-7.58H292l4.38,7.58Zm17.43-7.59,4.39-7.58h8.75l4.38,7.58-4.38,7.59h-8.75Zm28.42,16.41h-8.75l-4.38-7.58,4.38-7.59h8.75l4.39,7.59Zm15.29-8.82h-8.76L340,235.06l4.38-7.58h8.76l4.38,7.58Zm30.57,0H375l-4.38-7.59,4.38-7.58h8.76l4.38,7.58Zm30.56,0h-8.75l-4.38-7.59,4.38-7.58h8.75l4.38,7.58Zm30.57,0h-8.75l-4.38-7.59,4.38-7.58h8.75l4.38,7.58Zm0-17.65h-8.75l-4.38-7.58,4.38-7.59h8.75l4.38,7.59Zm0-17.65h-8.75l-4.38-7.58,4.38-7.59h8.75l4.38,7.59Zm0-17.64h-8.75l-4.38-7.59,4.38-7.59h8.75l4.38,7.59Zm0-17.65h-8.75l-4.38-7.59,4.38-7.58h8.75l4.38,7.58Zm0-17.65h-8.75l-4.38-7.59,4.38-7.58h8.75l4.38,7.58Zm0-17.65h-8.75l-4.38-7.59,4.38-7.58h8.75l4.38,7.58Zm0-17.65h-8.75l-4.38-7.58,4.38-7.59h8.75l4.38,7.59Zm0-17.65h-8.75l-4.38-7.58,4.38-7.59h8.75l4.38,7.59Zm0-17.65h-8.75l-4.38-7.58,4.38-7.59h8.75l4.38,7.59Zm0-17.64h-8.75l-4.38-7.59L436.12,51h8.75l4.38,7.58Zm0-17.65h-8.75l-4.38-7.59,4.38-7.58h8.75l4.38,7.58Zm0-17.65h-8.75l-4.38-7.59,4.38-7.58h8.75l4.38,7.58Z" transform="translate(0 13.25)"/><polygon class="cls-5" points="323.3 63.01 313.11 63.01 308.01 71.83 313.11 80.66 323.3 80.66 328.39 71.83 323.3 63.01"/><polygon class="cls-5" points="353.91 63.01 343.72 63.01 338.62 71.83 343.72 80.66 353.91 80.66 359 71.83 353.91 63.01"/><polygon class="cls-6" points="338.6 71.83 328.41 71.83 323.32 80.66 328.41 89.48 338.6 89.48 343.7 80.66 338.6 71.83"/><polygon class="cls-6" points="338.6 54.18 328.41 54.18 323.32 63.01 328.41 71.83 338.6 71.83 343.7 63.01 338.6 54.18"/><polygon class="cls-6" points="343.7 80.66 333.51 98.31 323.32 80.66 343.7 80.66"/><path class="cls-7" d="M360.07,58,355,49.14a1.22,1.22,0,0,0-1.07-.62h-9.5L340,40.93l4.38-7.58h4.39a1.24,1.24,0,1,0,0-2.48h-5.1a1.22,1.22,0,0,0-1.07.62l-4.75,8.2h-8.74l-4.75-8.2a1.22,1.22,0,0,0-1.07-.62h-5.11a1.24,1.24,0,0,0,0,2.48h4.39L327,40.93l-4.39,7.59h-9.49a1.23,1.23,0,0,0-1.08.62L306.94,58a1.25,1.25,0,0,0,0,1.24L312,68a1.25,1.25,0,0,0,1.08.62h9.49l9.84,17a1.23,1.23,0,0,0,2.14,0l9.83-17h9.5A1.24,1.24,0,0,0,355,68l5.09-8.83A1.2,1.2,0,0,0,360.07,58Zm-22.18,1.86,3.66,6.35H325.46l3.67-6.35ZM326.4,70.26l-.94-1.61h16.09l-.93,1.61L337.89,75h-8.76Zm2.73-28.09h8.76l4.38,7.59-4.38,7.58h-8.76l-4.38-7.58ZM309.44,58.58,313.82,51h8.76L327,58.58l-4.38,7.59h-8.76Zm24.07,24-2.95-5.1h5.9Zm19.68-16.4h-8.75l-4.39-7.59L344.44,51h8.75l4.38,7.58Z" transform="translate(0 13.25)"/><polygon class="cls-5" points="323.3 168.9 313.11 168.9 308.01 177.73 313.11 186.55 323.3 186.55 328.39 177.73 323.3 168.9"/><polygon class="cls-5" points="353.91 168.9 343.72 168.9 338.62 177.73 343.72 186.55 353.91 186.55 359 177.73 353.91 168.9"/><polygon class="cls-6" points="338.6 177.73 328.41 177.73 323.32 186.55 328.41 195.38 338.6 195.38 343.7 186.55 338.6 177.73"/><polygon class="cls-6" points="338.6 160.08 328.41 160.08 323.32 168.9 328.41 177.73 338.6 177.73 343.7 168.9 338.6 160.08"/><polygon class="cls-6" points="343.7 186.55 333.51 204.2 323.32 186.55 343.7 186.55"/><path class="cls-7" d="M360.07,163.86,355,155a1.24,1.24,0,0,0-1.07-.62h-9.5l-4.38-7.6,4.38-7.58h4.39a1.24,1.24,0,1,0,0-2.47h-5.1a1.23,1.23,0,0,0-1.07.61l-4.76,8.22h-8.73l-4.75-8.22a1.23,1.23,0,0,0-1.07-.61h-5.11a1.24,1.24,0,1,0,0,2.47h4.39l4.39,7.58-4.39,7.6h-9.49A1.25,1.25,0,0,0,312,155l-5.09,8.83a1.25,1.25,0,0,0,0,1.24l5.09,8.82a1.25,1.25,0,0,0,1.08.62h9.49l4.74,8.2,5.1,8.83a1.23,1.23,0,0,0,2.14,0l5.09-8.83,4.74-8.2h9.5a1.24,1.24,0,0,0,1.07-.62l5.09-8.82A1.2,1.2,0,0,0,360.07,163.86Zm-20.38,13.9-1.8,3.12h-8.76l-1.8-3.12-1.87-3.22h16.09Zm-14.23-5.7,3.67-6.34h8.76l3.66,6.34Zm3.67-24h8.76l4.38,7.58-4.38,7.59h-8.76l-4.38-7.59Zm-19.69,16.41,4.38-7.59h8.76l4.38,7.59-4.38,7.58h-8.76Zm24.07,24-2.95-5.11h5.9Zm19.68-16.41h-8.75l-4.39-7.58,4.39-7.59h8.75l4.38,7.59Z" transform="translate(0 13.25)"/><polygon class="cls-5" points="323.3 115.96 313.11 115.96 308.01 124.78 313.11 133.61 323.3 133.61 328.39 124.78 323.3 115.96"/><polygon class="cls-5" points="353.91 115.96 343.72 115.96 338.62 124.78 343.72 133.61 353.91 133.61 359 124.78 353.91 115.96"/><polygon class="cls-6" points="338.6 124.78 328.41 124.78 323.32 133.61 328.41 142.43 338.6 142.43 343.7 133.61 338.6 124.78"/><polygon class="cls-6" points="338.6 107.13 328.41 107.13 323.32 115.96 328.41 124.78 338.6 124.78 343.7 115.96 338.6 107.13"/><polygon class="cls-6" points="343.7 133.61 333.51 151.25 323.32 133.61 343.7 133.61"/><path class="cls-7" d="M360.07,110.91,355,102.09a1.22,1.22,0,0,0-1.07-.62h-9.5L340,93.87l4.38-7.58h4.39a1.24,1.24,0,1,0,0-2.48h-5.1a1.22,1.22,0,0,0-1.07.62l-4.76,8.21h-8.73l-4.75-8.21a1.22,1.22,0,0,0-1.07-.62h-5.11a1.24,1.24,0,0,0,0,2.48h4.39L327,93.87l-4.39,7.6h-9.49a1.23,1.23,0,0,0-1.08.62l-5.09,8.82a1.25,1.25,0,0,0,0,1.24L312,121a1.23,1.23,0,0,0,1.08.62h9.49l4.74,8.21h0l5.1,8.82a1.23,1.23,0,0,0,2.14,0l5.09-8.82h0l4.74-8.21h9.5A1.22,1.22,0,0,0,355,121l5.09-8.82A1.2,1.2,0,0,0,360.07,110.91ZM329.13,95.12h8.76l4.38,7.59-4.38,7.58h-8.76l-4.38-7.58Zm-19.69,16.41,4.38-7.59h8.76l4.38,7.59-4.38,7.59h-8.76Zm24.07,24-2.95-5.1h5.89Zm4.69-8.13-.31.54h-8.77l-.31-.54-3.35-5.8h16.09Zm-12.74-8.27,3.67-6.35h8.76l3.66,6.35Zm27.73,0h-8.75l-4.39-7.59,4.39-7.59h8.75l4.38,7.59Z" transform="translate(0 13.25)"/></g><path class="cls-7" d="M333.51,222.56a10.15,10.15,0,0,1-5.1-1.36l-86.19-49.76a10.22,10.22,0,0,1-5.1-8.83V60a10.22,10.22,0,0,1,5.1-8.83L328.41,1.36a10.26,10.26,0,0,1,10.2,0L424.8,51.12A10.24,10.24,0,0,1,429.9,60V162.61a10.24,10.24,0,0,1-5.1,8.83L338.61,221.2A10.21,10.21,0,0,1,333.51,222.56ZM333.51,5a5.3,5.3,0,0,0-2.62.7l-86.2,49.77A5.26,5.26,0,0,0,242.07,60V162.61a5.29,5.29,0,0,0,2.62,4.54l86.2,49.76a5.27,5.27,0,0,0,5.24,0l86.19-49.76a5.29,5.29,0,0,0,2.62-4.54V60a5.26,5.26,0,0,0-2.62-4.53L336.13,5.65A5.33,5.33,0,0,0,333.51,5Z" transform="translate(0 13.25)"/><path class="cls-8" d="M86.38,314.46q-3.22-6.57-13.28-10.57l-3.23-1.29q15.85-3.74,15.86-17.92a19.08,19.08,0,0,0-4.25-12.18,20.49,20.49,0,0,0-11.09-7.15,59.84,59.84,0,0,0-15.34-1.81q-5.67,0-8.64.26l-8.77.77c-2,.18-4.64.26-8,.26-4.3,0-7.73-.13-10.31-.39l-9.15-.9a2,2,0,0,1-.52-.13H9.15a8.76,8.76,0,0,0-6.64,2.65A9.61,9.61,0,0,0,0,273,9.28,9.28,0,0,0,2,279a6.13,6.13,0,0,0,5,2.45,15.31,15.31,0,0,0,3.16-.45,15,15,0,0,1,3-.45q3.48,0,3.48,8.64v35.71q0,8.76-3.48,8.76a15,15,0,0,1-3-.45A15.31,15.31,0,0,0,7,332.77a6.16,6.16,0,0,0-5,2.45,10.37,10.37,0,0,0,.51,12.89A8.38,8.38,0,0,0,4,349.28c3.39,3.86,4,8.68,2.06,14.18a26.38,26.38,0,0,0-1.36,4.83c-.42,2.58,1.14,4.41,3.72,4.74s4-1,4.19-3.45a28.71,28.71,0,0,0-.62-6.1c-.3-2-1.22-3.89-1.07-5.77a5.39,5.39,0,0,1,2.31-3.87c1.71-.91,3.34.18,4.38,1.91,1.62,2.65,4.76,3.94,6.94,2,2.93-2.65,6.5-1.71,9.62-2.9,2.36-.89,3.45.4,3.1,3a43.87,43.87,0,0,0-.55,4.68c0,2,.87,3.65,3,3.77a3.7,3.7,0,0,0,4.12-3.44c.22-1.86,0-3.75.05-5.63a6.29,6.29,0,0,1,.77-2.33c2.67.62,3.42-1.49,5-3.12.12,1.19.22,2.4.37,3.59.32,2.9,2.11,3.74,4.53,2.18a4.39,4.39,0,0,0,2-5.43,10.08,10.08,0,0,1-.36-1.41q15.28-.17,23.9-6.75,8.83-6.76,8.83-19A23.65,23.65,0,0,0,86.38,314.46ZM38.8,285.72c0-2.84.91-4.69,2.71-5.55q1.8-.76,6.71-.77,13.39,0,13.4,8.64a7.44,7.44,0,0,1-3.93,6.57q-3.93,2.46-10.64,2.45h-4c-1.72,0-2.79-.17-3.22-.51-.69-.43-1-1.51-1-3.23Zm22.37,45.76A14.31,14.31,0,0,1,52,334.32q-7.47,0-10.31-1.87c-1.89-1.25-2.84-3.5-2.84-6.77v-9.41a4.27,4.27,0,0,1,.91-3.16c.6-.56,1.84-.84,3.74-.84h3.86q7.86,0,12.64,3.23A9.84,9.84,0,0,1,64.72,324,9.11,9.11,0,0,1,61.17,331.48Z" transform="translate(0 13.25)"/><path class="cls-8" d="M159.08,334.32a7.18,7.18,0,0,0-2.38-5.54,8.85,8.85,0,0,0-6.25-2.2q-4.65,0-8.51,4.13-5.69,5.93-11.09,5.93a11.65,11.65,0,0,1-8.77-3.61,12.5,12.5,0,0,1-3.48-9c0-1.21.2-2,.58-2.26a5.7,5.7,0,0,1,2.9-.45h31.46c2.66,0,4.45-.6,5.35-1.81s1.35-3.61,1.35-7.22q0-13.14-8.18-21T130.2,283.4q-14.68,0-23.78,9.6t-9.09,25.2q0,15.48,9.15,24.76c.2.2.42.37.62.56,1.93,3.43,2.06,7.46.5,12a26.38,26.38,0,0,0-1.36,4.83c-.42,2.58,1.14,4.42,3.72,4.74s4-1,4.18-3.45a27.32,27.32,0,0,0-.62-6.09c-.29-2-1.21-3.9-1.06-5.78a4.77,4.77,0,0,1,.55-1.8,35.94,35.94,0,0,0,18,4.32,45.76,45.76,0,0,0,7.57-.62,21.62,21.62,0,0,0-.29,2.88c0,2,.87,3.65,3,3.77a3.69,3.69,0,0,0,4.11-3.44c.2-1.68,0-3.38,0-5.08A31.83,31.83,0,0,0,150.9,347c.2-.13.37-.27.57-.4,0,.24,0,.48.07.72.33,2.9,2.11,3.74,4.54,2.18a4.4,4.4,0,0,0,2-5.43,8,8,0,0,1-.36-4A12.39,12.39,0,0,0,159.08,334.32Zm-37.77-33.13a10.25,10.25,0,0,1,8.38-4,10.47,10.47,0,0,1,7,2.51,7.52,7.52,0,0,1,3,5.87,2.31,2.31,0,0,1-.45,1.61,3.92,3.92,0,0,1-2.39.45H122.34c-1.55,0-2.45-.17-2.71-.51a2.16,2.16,0,0,1-.38-1.29A7.74,7.74,0,0,1,121.31,301.19Z" transform="translate(0 13.25)"/><path class="cls-8" d="M228.92,338.23a4.8,4.8,0,0,1,.28-1.24h0a12.42,12.42,0,0,0,.31-2.67,7.22,7.22,0,0,0-2.38-5.54,8.88,8.88,0,0,0-6.26-2.2q-4.64,0-8.51,4.13-5.67,5.93-11.08,5.93a11.65,11.65,0,0,1-8.77-3.61,12.5,12.5,0,0,1-3.48-9c0-1.21.19-2,.58-2.26a5.68,5.68,0,0,1,2.9-.45h3.71c0,.36-.08.72-.09,1.08,0,2,.87,3.64,3,3.76a3.68,3.68,0,0,0,4.11-3.44,13.16,13.16,0,0,0,.09-1.4h20.64q4,0,5.35-1.81t1.35-7.22q0-13.14-8.19-21t-21.85-7.86q-14.68,0-23.78,9.6t-9.09,25.2q0,15.48,9.15,24.76t24.5,9.28q11.73,0,19.91-5.22a26.13,26.13,0,0,0,2.34-1.69,20.79,20.79,0,0,0-.92,3.48c-.42,2.58,1.14,4.41,3.72,4.74s4-1.05,4.19-3.45A28.71,28.71,0,0,0,230,344C229.69,342.05,228.77,340.11,228.92,338.23Zm-37.22-37a10.25,10.25,0,0,1,8.38-4,10.47,10.47,0,0,1,7,2.51,7.51,7.51,0,0,1,3,5.87,2.26,2.26,0,0,1-.45,1.61,3.86,3.86,0,0,1-2.38.45H192.73c-1.55,0-2.45-.17-2.71-.51a2.1,2.1,0,0,1-.38-1.29A7.74,7.74,0,0,1,191.7,301.19Z" transform="translate(0 13.25)"/><path class="cls-7" d="M422.76,339.88c4.08-5.86,6.14-13.41,6.14-22.71q0-15.72-8.83-24.75t-24.17-9q-15.6,0-24.24,9.08T363,317.82c0,8.78,1.91,15.95,5.67,21.57h-.1a2.85,2.85,0,0,1,.26.23,26.89,26.89,0,0,0,2.87,3.59c.16.17.34.31.5.47,1.84,3.4,1.94,7.37.41,11.79a26.38,26.38,0,0,0-1.36,4.83c-.42,2.58,1.14,4.42,3.72,4.74s4-1,4.19-3.45a28.55,28.55,0,0,0-.62-6.09c-.3-2-1.22-3.9-1.07-5.78A4.76,4.76,0,0,1,378,348c5,2.8,11.12,4.24,18.4,4.24a43,43,0,0,0,7.16-.57,22.6,22.6,0,0,0-.28,2.83c0,2,.87,3.65,3,3.77a3.7,3.7,0,0,0,4.12-3.44,50.81,50.81,0,0,0,0-5.09,27.78,27.78,0,0,0,6-3.39c0,.33.06.66.1,1,.32,2.9,2.1,3.74,4.53,2.18a4.39,4.39,0,0,0,2-5.43A7.86,7.86,0,0,1,422.76,339.88Zm-14.61-22.06q0,18.56-12,18.56a10.47,10.47,0,0,1-9.22-4.9q-3.29-4.89-3.29-13.66a34.65,34.65,0,0,1,.5-5.81,5.47,5.47,0,0,0,1.59.46c2.6.34,4-1,4.18-3.45a27.47,27.47,0,0,0-.62-6.1c-.05-.38-.15-.77-.24-1.15a10,10,0,0,1,6.84-2.52Q408.16,299.25,408.15,317.82Z" transform="translate(0 13.25)"/><path class="cls-7" d="M659.28,285.2a53.44,53.44,0,0,0-6.19.52,55.24,55.24,0,0,1-6.19.51,51.74,51.74,0,0,1-5.93-.51,50,50,0,0,0-5.93-.52,6,6,0,0,0-4.7,2.13,7.79,7.79,0,0,0-1.87,5.35c0,2.92.9,4.73,2.7,5.41l2.32.9c1.38.52,2.07,1.25,2.07,2.2a16.68,16.68,0,0,1-1,4.64l-8.77,26.55L617,304.67a13.75,13.75,0,0,1-.77-3.48c0-1.29.9-2.07,2.71-2.32,3.61-.6,5.41-2.67,5.41-6.19q0-7.49-7.09-7.48-.39,0-6.19.52t-8.25.51a53.76,53.76,0,0,1-6.12-.51,52,52,0,0,0-6.12-.52,7.24,7.24,0,0,0-5.61,2.51,8.83,8.83,0,0,0-2.26,6.13q0,7.35,6.58,7.35a2.33,2.33,0,0,0,.64-.13h.52c1.2-.17,1.84-.26,1.93-.26q1.54,0,3.09,3.61l14.44,34.16q4.38,10.44,4.39,13c0,1.89-1.06,4.21-3.16,7s-4.32,4.13-6.64,4.13a7.81,7.81,0,0,1-3.23-.77,15.16,15.16,0,0,0,.26-2.84,8.18,8.18,0,0,0-2.45-6.12,8.84,8.84,0,0,0-6.44-2.39,10.37,10.37,0,0,0-7.67,3,10.56,10.56,0,0,0-3,7.8c0,4.56,2,8.29,5.93,11.22s9,4.38,15.08,4.38a29.53,29.53,0,0,0,17.73-5.73,20.1,20.1,0,0,1-.83,3.17,25.94,25.94,0,0,0-1.36,4.83c-.42,2.58,1.14,4.41,3.72,4.73s4-1,4.19-3.44a28.71,28.71,0,0,0-.62-6.1c-.3-2-1.22-3.89-1.07-5.77a4.22,4.22,0,0,1,.24-1.07,44.6,44.6,0,0,0,3.27-3.64A53.45,53.45,0,0,0,634,355.2c1-1.94,2.51-5.58,4.6-10.87a4.44,4.44,0,0,0,2.94,1.48c2.61.35,4-1,4.19-3.45a28,28,0,0,0-.62-6.09c-.3-2-1.21-3.89-1.06-5.78a3.61,3.61,0,0,1,.12-.55l5.24-13.65a4.41,4.41,0,0,0,2.94,1.47c2.6.35,4-1,4.18-3.44a27.47,27.47,0,0,0-.62-6.1c-.29-1.94-1.2-3.87-1.06-5.74a3.39,3.39,0,0,1,2.8-1.94,10.15,10.15,0,0,1,1.74.26,10.15,10.15,0,0,0,1.74.26,5.15,5.15,0,0,0,4.19-2.26,8.29,8.29,0,0,0,1.74-5.22Q667,285.2,659.28,285.2Z" transform="translate(0 13.25)"/><path class="cls-7" d="M364.64,266.19a8.44,8.44,0,0,0-6.38-2.65c-.78,0-1.72,0-2.84.13q-10.05,1.15-10.31,1.16a81.16,81.16,0,0,1-8.12-.77,53,53,0,0,0-6.19-.52q-8.64,0-8.64,9.67,0,7.74,4.9,7.74a3.91,3.91,0,0,0,.77-.13h.78a11.86,11.86,0,0,1,1.67-.26c1.46,0,2.19.77,2.19,2.32a9.34,9.34,0,0,1-.38,2.45L324,327.87l-8.64-55.43a45.53,45.53,0,0,0-1.16-5.93,4.34,4.34,0,0,0-4.39-3c-1,0-2.6.11-4.7.32s-3.67.33-4.71.33-2.62-.11-4.77-.33-3.73-.32-4.77-.32a3.89,3.89,0,0,0-3.61,1.68c-.68,1.12-1.33,3.52-1.93,7.22l-8.51,55.43-8.25-42.54a12.09,12.09,0,0,1-.26-2.32c0-1.63.73-2.45,2.2-2.45a13.64,13.64,0,0,1,1.54.26h.9a4.1,4.1,0,0,0,.78.13q4.89,0,4.9-8.25,0-9.17-8.64-9.16a52.83,52.83,0,0,0-6.19.52,81.42,81.42,0,0,1-8.12.77,48.27,48.27,0,0,1-6.64-.64,48.42,48.42,0,0,0-6.51-.65,8.75,8.75,0,0,0-6.45,2.58,8.94,8.94,0,0,0-2.57,6.58,10,10,0,0,0,1.93,6.18,5.57,5.57,0,0,0,4.51,2.58,8.55,8.55,0,0,0,2.58-.51,6.85,6.85,0,0,1,2.19-.39c1.38,0,2.45,1.08,3.22,3.22.33,1.64.66,3.23,1,4.79,0,.06,0,.1,0,.16a43.75,43.75,0,0,0-.55,4.69c0,1.81.73,3.33,2.48,3.68l8.44,37.22,1.55,6.57a31.19,31.19,0,0,0,1.93,6.45,4.72,4.72,0,0,0,2.81,2.3,3.92,3.92,0,0,0,3.78,3.91c2.6.34,4-1.05,4.19-3.45,0-.11,0-.21,0-.32,1.35-.08,2.4-.12,3.14-.12,1.89,0,3.44,0,4.64.13,2.41.17,4,.26,4.77.26,2.24,0,3.79-.78,4.65-2.32s1.71-5.07,2.57-10.58l7.09-45,7,45q.46,3,.94,5.23a17.19,17.19,0,0,1-1,6.84,26.26,26.26,0,0,0-1.36,4.84c-.42,2.57,1.14,4.41,3.72,4.73s4-1,4.19-3.45a24.24,24.24,0,0,0-.51-5.41,8.45,8.45,0,0,0,1.29.12h.64l4.13-.26c1.37-.09,3-.13,4.77-.13,2.14,0,3.65,0,4.51.13,1.8.17,3.18.26,4.12.26,2.58,0,4.34-.91,5.29-2.71a36.14,36.14,0,0,0,1.93-6.45l11.73-52.08c.78-3.26,1.16-4.94,1.16-5,.69-2.14,1.76-3.22,3.23-3.22a6.26,6.26,0,0,1,2.12.45,7.64,7.64,0,0,0,2.65.45,5.4,5.4,0,0,0,4.44-2.58,10,10,0,0,0,1.87-6.06A9.21,9.21,0,0,0,364.64,266.19Z" transform="translate(0 13.25)"/><path class="cls-7" d="M494.46,288a16.69,16.69,0,0,0-11.93-4.57q-10.18,0-15.85,7.09-2.46,3.09-4.26,9.67v-11q0-4-4-4a27.88,27.88,0,0,0-4.39.52,29,29,0,0,1-4.51.51,20.34,20.34,0,0,1-4.38-.51,17.52,17.52,0,0,0-3.61-.52,6.62,6.62,0,0,0-5.29,2.45,9.5,9.5,0,0,0-2.06,6.32q0,7.08,6.19,7.09a8.55,8.55,0,0,0,2.25-.45,8.76,8.76,0,0,1,2-.45c1.46,0,2.19,2.44,2.19,7.34v20.89q0,7.22-2.19,7.22a6.54,6.54,0,0,1-1.93-.45,7.16,7.16,0,0,0-2.32-.45q-6.19,0-6.19,7.21,0,8.64,8,8.64c.95,0,3.48-.21,7.61-.64a84.23,84.23,0,0,1,8.64-.39,69.73,69.73,0,0,1,8.12.39,71.59,71.59,0,0,0,7.22.64,8.36,8.36,0,0,0,6.12-2.51,8.47,8.47,0,0,0,2.51-6.25,6.81,6.81,0,0,0-6.83-6.84,14.31,14.31,0,0,0-3.09.52,14.44,14.44,0,0,1-3.23.51,2,2,0,0,1-1.8-.77c-.52-.86-.77-2.84-.77-5.93v-4.9A56,56,0,0,1,469,307.5c.08-.27.19-.5.29-.75a3,3,0,0,0,2.88,2.6,3.69,3.69,0,0,0,4.12-3.44c.22-1.86-.05-3.74,0-5.63a4.84,4.84,0,0,1,.3-1.21h-.35a12.53,12.53,0,0,1,4.31-.72h.77a12.18,12.18,0,0,0-1.67,5,7.41,7.41,0,0,0,2.51,5.67,8.69,8.69,0,0,0,6.12,2.32A10.17,10.17,0,0,0,496.2,308a12.49,12.49,0,0,0,3.09-8.71A14.92,14.92,0,0,0,494.46,288Z" transform="translate(0 13.25)"/><path class="cls-7" d="M580,335.09l-2.7.39a7.58,7.58,0,0,1-2.07.39q-2.44,0-6.57-6.58l-10.06-15.86-1.16-1.67a2.65,2.65,0,0,1-.51-1.42c0-.94,1.11-2.23,3.35-3.87l4.36-3.22a2.89,2.89,0,0,0,2.26,1.14A3.7,3.7,0,0,0,571,301c0-.42.07-.84.08-1.26a2.56,2.56,0,0,1,.27-.05,12.37,12.37,0,0,1,2.58.39,13.33,13.33,0,0,0,2.83.38q5.93,0,5.93-7.47,0-7.74-7.6-7.74c-.18,0-2.11.17-5.81.52s-6.79.51-9.28.51q-2.44,0-7.22-.51t-7.09-.52q-6.71,0-6.7,5.93a5.68,5.68,0,0,0,1.67,4.38l2.07,1.94a2.87,2.87,0,0,1,1.16,2.06q0,1.68-3.48,4.64c-1.47,1.29-2.45,2.15-3,2.58L531.39,312V268.18q0-4.89-4.12-4.89a36.75,36.75,0,0,0-4.26.38,47,47,0,0,1-5.67.52,44.68,44.68,0,0,1-6.45-.65,24.88,24.88,0,0,0-3.73-.25c-5.51,0-8.25,2.88-8.25,8.63q0,7.09,6.18,7.09a6.52,6.52,0,0,0,2.07-.26,7.14,7.14,0,0,1,2.32-.51q2.19,0,2.19,7.22v42.93c0,4.81-.78,7.22-2.32,7.22a3.68,3.68,0,0,1-.91-.13c-2.23-.52-3.3-.77-3.22-.77q-6.32,0-6.31,7.34a8.66,8.66,0,0,0,2.19,6.13,7.34,7.34,0,0,0,5.67,2.38,49.72,49.72,0,0,0,5.93-.64,48.13,48.13,0,0,1,6.7-.39,85.15,85.15,0,0,1,11,.52,45.4,45.4,0,0,0,5.54.51q7.35,0,7.35-9.15,0-6.2-5.28-6.19a9.06,9.06,0,0,0-2.32.39,8.9,8.9,0,0,1-2.19.38q-2.07,0-2.07-4.89v-2.58l3.2-2.93c-.05.24-.13.48-.17.72-.42,2.58,1.14,4.41,3.72,4.73s4-1,4.19-3.44a17.71,17.71,0,0,0-.23-3.62c.28.36.56.73.89,1.19l4.26,5.93q2.84,4,2.84,5.54a4.36,4.36,0,0,1-.91,2.45,11,11,0,0,0-1.54,4.51,6.91,6.91,0,0,0,1.93,4.9,6,6,0,0,0,4.51,2.06,36.69,36.69,0,0,0,4.9-.51,44,44,0,0,1,6.83-.52,53.44,53.44,0,0,1,6.19.52,55.24,55.24,0,0,0,6.19.51q7.6,0,7.61-8.12Q585.8,335.09,580,335.09Z" transform="translate(0 13.25)"/></g></g></svg>