<svg xmlns="http://www.w3.org/2000/svg" viewBox="0 0 570.33 384.05"><defs><style>.cls-1{fill:#f5d326;}.cls-2{fill:#efb025;}.cls-3{fill:#d2dfe2;}.cls-4{fill:#f4d422;}.cls-5{fill:#202021;}.cls-6{fill:#392b1b;}.cls-7{fill:#fff;}</style></defs><g id="Layer_2" data-name="Layer 2"><g id="Layer_1-2" data-name="Layer 1"><polygon class="cls-1" points="288.19 56.24 279.05 56.24 274.48 64.15 279.05 72.06 288.19 72.06 292.75 64.15 288.19 56.24"/><path class="cls-2" d="M288.18,73.18h-9.13a1.12,1.12,0,0,1-1-.56l-4.57-7.91a1.1,1.1,0,0,1,0-1.11l4.57-7.91a1.1,1.1,0,0,1,1-.56h9.13a1.11,1.11,0,0,1,1,.56l4.56,7.91a1.1,1.1,0,0,1,0,1.11l-4.56,7.91A1.13,1.13,0,0,1,288.18,73.18ZM279.69,71h7.85l3.93-6.8-3.93-6.8h-7.85l-3.92,6.8Z"/><polygon class="cls-1" points="288.19 72.06 279.05 72.06 274.48 79.98 279.05 87.89 288.19 87.89 292.75 79.98 288.19 72.06"/><path class="cls-2" d="M288.18,89h-9.13a1.1,1.1,0,0,1-1-.56l-4.57-7.91a1.1,1.1,0,0,1,0-1.11l4.57-7.91a1.12,1.12,0,0,1,1-.56h9.13a1.13,1.13,0,0,1,1,.56l4.56,7.91a1.1,1.1,0,0,1,0,1.11l-4.56,7.91A1.11,1.11,0,0,1,288.18,89Zm-8.49-2.22h7.85l3.93-6.8-3.93-6.8h-7.85L275.77,80Z"/><polygon class="cls-1" points="274.48 64.15 265.35 64.15 260.78 72.06 265.35 79.98 274.48 79.98 279.05 72.06 274.48 64.15"/><path class="cls-2" d="M274.48,81.09h-9.13a1.11,1.11,0,0,1-1-.56l-4.57-7.91a1.1,1.1,0,0,1,0-1.11l4.57-7.91a1.09,1.09,0,0,1,1-.56h9.13a1.09,1.09,0,0,1,1,.56L280,71.51a1.1,1.1,0,0,1,0,1.11l-4.57,7.91A1.11,1.11,0,0,1,274.48,81.09ZM266,78.87h7.85l3.93-6.81-3.93-6.8H266l-3.93,6.8Z"/><polygon class="cls-1" points="301.89 64.15 292.75 64.15 288.19 72.06 292.75 79.98 301.89 79.98 306.46 72.06 301.89 64.15"/><path class="cls-2" d="M301.89,81.09h-9.14a1.13,1.13,0,0,1-1-.56l-4.57-7.91a1.1,1.1,0,0,1,0-1.11l4.57-7.91a1.11,1.11,0,0,1,1-.56h9.14a1.1,1.1,0,0,1,1,.56l4.57,7.91a1.1,1.1,0,0,1,0,1.11l-4.57,7.91A1.12,1.12,0,0,1,301.89,81.09Zm-8.49-2.22h7.85l3.92-6.81-3.92-6.8H293.4l-3.93,6.8Z"/><polygon class="cls-3" points="274.46 64.15 265.33 64.15 260.76 72.06 265.33 79.98 274.46 79.98 279.03 72.06 274.46 64.15"/><polygon class="cls-3" points="301.91 64.15 292.77 64.15 288.2 72.06 292.77 79.98 301.91 79.98 306.48 72.06 301.91 64.15"/><polygon class="cls-4" points="288.19 72.06 279.05 72.06 274.48 79.98 279.05 87.89 288.19 87.89 292.75 79.98 288.19 72.06"/><polygon class="cls-4" points="288.19 56.24 279.05 56.24 274.48 64.15 279.05 72.06 288.19 72.06 292.75 64.15 288.19 56.24"/><polygon class="cls-4" points="292.75 79.98 283.62 95.8 274.48 79.98 292.75 79.98"/><line class="cls-1" x1="279.05" y1="87.89" x2="288.19" y2="87.89"/><path class="cls-5" d="M307.44,71.51l-4.57-7.91a1.11,1.11,0,0,0-1-.56h-8.52l-3.93-6.8,3.94-6.8h3.93a1.11,1.11,0,1,0,0-2.22h-4.57a1.1,1.1,0,0,0-1,.55l-4.27,7.36H279.7l-4.26-7.35a1.1,1.1,0,0,0-1-.56H269.9a1.11,1.11,0,0,0,0,2.22h3.94l3.93,6.8L273.84,63h-8.51a1.09,1.09,0,0,0-1,.56l-4.57,7.91a1.1,1.1,0,0,0,0,1.11l4.57,7.91a1.11,1.11,0,0,0,1,.56h8.51l8.82,15.26a1.09,1.09,0,0,0,1,.56,1.11,1.11,0,0,0,1-.56l4.56-7.91h0l4.24-7.35h8.52a1.13,1.13,0,0,0,1-.56l4.57-7.91A1.1,1.1,0,0,0,307.44,71.51Zm-19.9,15.27h-7.85l-2-3.51-1.26-2.18h14.42l-3,5.2Zm0-13.6,3.29,5.69H276.41l3.28-5.69Zm-7.85-15.83h7.85l3.93,6.8L287.54,71h-7.85l-3.92-6.8ZM262,72.06l3.93-6.8h7.85l3.93,6.8-3.93,6.81H266Zm21.58,21.52L281,89h5.28Zm17.65-14.71h-7.86l-3.92-6.81,3.92-6.8h7.86l3.92,6.8Z"/><polygon class="cls-1" points="288.19 151.18 279.05 151.18 274.48 159.09 279.05 167 288.19 167 292.75 159.09 288.19 151.18"/><path class="cls-2" d="M288.18,168.11h-9.13a1.11,1.11,0,0,1-1-.55l-4.57-7.91a1.12,1.12,0,0,1,0-1.12l4.57-7.91a1.11,1.11,0,0,1,1-.55h9.13a1.12,1.12,0,0,1,1,.55l4.56,7.91a1.12,1.12,0,0,1,0,1.12l-4.56,7.91A1.12,1.12,0,0,1,288.18,168.11Zm-8.49-2.22h7.85l3.93-6.8-3.93-6.8h-7.85l-3.92,6.8Z"/><polygon class="cls-1" points="288.19 167 279.05 167 274.48 174.91 279.05 182.82 288.19 182.82 292.75 174.91 288.19 167"/><path class="cls-2" d="M288.18,183.93h-9.13a1.11,1.11,0,0,1-1-.55l-4.57-7.91a1.1,1.1,0,0,1,0-1.11l4.57-7.92a1.11,1.11,0,0,1,1-.55h9.13a1.12,1.12,0,0,1,1,.55l4.56,7.92a1.1,1.1,0,0,1,0,1.11l-4.56,7.91A1.12,1.12,0,0,1,288.18,183.93Zm-8.49-2.22h7.85l3.93-6.8-3.93-6.8h-7.85l-3.92,6.8Z"/><polygon class="cls-1" points="274.48 159.09 265.35 159.09 260.78 167 265.35 174.91 274.48 174.91 279.05 167 274.48 159.09"/><path class="cls-2" d="M274.48,176h-9.13a1.1,1.1,0,0,1-1-.55l-4.57-7.91a1.12,1.12,0,0,1,0-1.12l4.57-7.91a1.1,1.1,0,0,1,1-.55h9.13a1.1,1.1,0,0,1,1,.55l4.57,7.91a1.12,1.12,0,0,1,0,1.12l-4.57,7.91A1.1,1.1,0,0,1,274.48,176ZM266,173.8h7.85l3.93-6.8-3.93-6.8H266l-3.93,6.8Z"/><polygon class="cls-1" points="301.89 159.09 292.75 159.09 288.19 167 292.75 174.91 301.89 174.91 306.46 167 301.89 159.09"/><path class="cls-2" d="M301.89,176h-9.14a1.12,1.12,0,0,1-1-.55l-4.57-7.91a1.12,1.12,0,0,1,0-1.12l4.57-7.91a1.12,1.12,0,0,1,1-.55h9.14a1.11,1.11,0,0,1,1,.55l4.57,7.91a1.12,1.12,0,0,1,0,1.12l-4.57,7.91A1.11,1.11,0,0,1,301.89,176Zm-8.49-2.22h7.85l3.92-6.8-3.92-6.8H293.4l-3.93,6.8Z"/><polygon class="cls-3" points="274.46 159.09 265.33 159.09 260.76 167 265.33 174.91 274.46 174.91 279.03 167 274.46 159.09"/><polygon class="cls-3" points="301.91 159.09 292.77 159.09 288.2 167 292.77 174.91 301.91 174.91 306.48 167 301.91 159.09"/><polygon class="cls-4" points="288.19 167 279.05 167 274.48 174.91 279.05 182.83 288.19 182.83 292.75 174.91 288.19 167"/><polygon class="cls-4" points="288.19 151.18 279.05 151.18 274.48 159.09 279.05 167 288.19 167 292.75 159.09 288.19 151.18"/><polygon class="cls-4" points="292.75 174.91 283.62 190.74 274.48 174.91 292.75 174.91"/><line class="cls-1" x1="279.05" y1="182.83" x2="288.19" y2="182.83"/><path class="cls-5" d="M307.44,166.45l-4.57-7.91a1.11,1.11,0,0,0-1-.56h-8.52l-3.93-6.81,3.94-6.8h3.93a1.11,1.11,0,1,0,0-2.22h-4.57a1.1,1.1,0,0,0-1,.55l-4.27,7.37H279.7l-4.26-7.36a1.1,1.1,0,0,0-1-.56H269.9a1.11,1.11,0,0,0,0,2.22h3.94l3.93,6.8L273.84,158h-8.51a1.09,1.09,0,0,0-1,.56l-4.57,7.91a1.1,1.1,0,0,0,0,1.11l4.57,7.91a1.11,1.11,0,0,0,1,.56h8.51l8.82,15.26a1.09,1.09,0,0,0,1,.56,1.11,1.11,0,0,0,1-.56l4.56-7.91h0l4.24-7.35h8.52a1.13,1.13,0,0,0,1-.56l4.57-7.91A1.1,1.1,0,0,0,307.44,166.45Zm-19.9,15.27h-7.85l-2-3.51L276.41,176h14.42l-3,5.2Zm0-13.6,3.29,5.69H276.41l3.28-5.69Zm-7.85-15.83h7.85l3.93,6.8-3.93,6.8h-7.85l-3.92-6.8ZM262,167l3.93-6.8h7.85l3.93,6.8-3.93,6.81H266Zm21.58,21.52L281,183.94h5.28Zm17.65-14.71h-7.86L289.49,167l3.92-6.8h7.86l3.92,6.8Z"/><polygon class="cls-1" points="288.19 103.71 279.05 103.71 274.48 111.62 279.05 119.53 288.19 119.53 292.75 111.62 288.19 103.71"/><path class="cls-2" d="M288.18,120.64h-9.13a1.11,1.11,0,0,1-1-.55l-4.57-7.91a1.1,1.1,0,0,1,0-1.11l4.57-7.92a1.11,1.11,0,0,1,1-.55h9.13a1.12,1.12,0,0,1,1,.55l4.56,7.92a1.1,1.1,0,0,1,0,1.11l-4.56,7.91A1.12,1.12,0,0,1,288.18,120.64Zm-8.49-2.22h7.85l3.93-6.8-3.93-6.8h-7.85l-3.92,6.8Z"/><polygon class="cls-1" points="288.19 119.53 279.05 119.53 274.48 127.44 279.05 135.35 288.19 135.35 292.75 127.44 288.19 119.53"/><path class="cls-2" d="M288.18,136.47h-9.13a1.12,1.12,0,0,1-1-.56L273.52,128a1.1,1.1,0,0,1,0-1.11l4.57-7.91a1.1,1.1,0,0,1,1-.56h9.13a1.11,1.11,0,0,1,1,.56l4.56,7.91a1.1,1.1,0,0,1,0,1.11l-4.56,7.91A1.13,1.13,0,0,1,288.18,136.47Zm-8.49-2.23h7.85l3.93-6.8-3.93-6.8h-7.85l-3.92,6.8Z"/><polygon class="cls-1" points="274.48 111.62 265.35 111.62 260.78 119.53 265.35 127.44 274.48 127.44 279.05 119.53 274.48 111.62"/><path class="cls-2" d="M274.48,128.55h-9.13a1.1,1.1,0,0,1-1-.55l-4.57-7.91a1.1,1.1,0,0,1,0-1.11l4.57-7.91a1.09,1.09,0,0,1,1-.56h9.13a1.09,1.09,0,0,1,1,.56L280,119a1.1,1.1,0,0,1,0,1.11L275.44,128A1.1,1.1,0,0,1,274.48,128.55ZM266,126.33h7.85l3.93-6.8-3.93-6.8H266l-3.93,6.8Z"/><polygon class="cls-1" points="301.89 111.62 292.75 111.62 288.19 119.53 292.75 127.44 301.89 127.44 306.46 119.53 301.89 111.62"/><path class="cls-2" d="M301.89,128.55h-9.14a1.12,1.12,0,0,1-1-.55l-4.57-7.91a1.1,1.1,0,0,1,0-1.11l4.57-7.91a1.11,1.11,0,0,1,1-.56h9.14a1.1,1.1,0,0,1,1,.56l4.57,7.91a1.1,1.1,0,0,1,0,1.11L302.85,128A1.11,1.11,0,0,1,301.89,128.55Zm-8.49-2.22h7.85l3.92-6.8-3.92-6.8H293.4l-3.93,6.8Z"/><line class="cls-1" x1="279.05" y1="135.36" x2="288.19" y2="135.36"/><path class="cls-6" d="M288.18,136.47h-9.13a1.11,1.11,0,0,1,0-2.22h9.13a1.11,1.11,0,1,1,0,2.22Z"/><polygon class="cls-3" points="274.46 111.63 265.33 111.63 260.76 119.54 265.33 127.45 274.46 127.45 279.03 119.54 274.46 111.63"/><polygon class="cls-3" points="301.91 111.63 292.77 111.63 288.2 119.54 292.77 127.45 301.91 127.45 306.48 119.54 301.91 111.63"/><polygon class="cls-4" points="288.19 119.54 279.05 119.54 274.48 127.45 279.05 135.36 288.19 135.36 292.75 127.45 288.19 119.54"/><polygon class="cls-4" points="288.19 103.71 279.05 103.71 274.48 111.63 279.05 119.54 288.19 119.54 292.75 111.63 288.19 103.71"/><polygon class="cls-4" points="292.75 127.45 283.62 143.27 274.48 127.45 292.75 127.45"/><line class="cls-1" x1="279.05" y1="135.35" x2="288.19" y2="135.35"/><path class="cls-5" d="M307.44,119l-4.57-7.91a1.13,1.13,0,0,0-1-.56h-8.52l-3.93-6.81,3.94-6.79h3.93a1.12,1.12,0,0,0,0-2.23h-4.57a1.09,1.09,0,0,0-1,.56l-4.27,7.36H279.7l-4.26-7.36a1.1,1.1,0,0,0-1-.56H269.9a1.12,1.12,0,0,0,0,2.23h3.94l3.93,6.8-3.93,6.8h-8.51a1.11,1.11,0,0,0-1,.56L259.8,119a1.1,1.1,0,0,0,0,1.11l4.57,7.91a1.09,1.09,0,0,0,1,.56h8.51l8.82,15.27a1.1,1.1,0,0,0,1,.55,1.12,1.12,0,0,0,1-.55l4.57-7.92,4.24-7.35h8.52a1.11,1.11,0,0,0,1-.56l4.57-7.91A1.1,1.1,0,0,0,307.44,119Zm-18.28,12.47-1.61,2.79h-7.86l-2.34-4.05-.94-1.63h14.42Zm-12.75-5.11,3.28-5.69h7.85l3.29,5.69Zm3.28-21.52h7.85l3.93,6.81-3.93,6.79h-7.85l-3.92-6.79ZM262,119.54l3.93-6.8h7.85l3.93,6.8-3.93,6.8H266Zm21.58,21.51L281,136.47h5.29Zm17.65-14.71h-7.86l-3.92-6.8,3.92-6.8h7.86l3.92,6.8Z"/><polygon class="cls-7" points="180.1 59.77 283.62 15.39 373.81 67.46 373.81 163.91 387.14 163.91 387.14 59.77 283.62 0 180.1 59.77"/><polygon class="cls-7" points="387.14 179.3 283.62 223.68 193.43 171.6 193.43 75.16 180.1 75.16 180.1 179.3 283.62 239.07 387.14 179.3"/><path class="cls-7" d="M73.3,305.12q0,12.12-13.56,15.32l2.76,1.11q8.59,3.4,11.35,9a20.14,20.14,0,0,1,2.1,8.93Q76,350,68.4,355.77t-21.11,5.79q-4.3,0-9-.33l-7.83-.55c-2.05-.15-4.3-.22-6.72-.22A76.5,76.5,0,0,0,16,361c-3.38.36-5.8.55-7.27.55H7.83a7.52,7.52,0,0,1-5.68-2.21,8.86,8.86,0,0,1-.44-11A5.25,5.25,0,0,1,6,346.24a13.48,13.48,0,0,1,2.7.38,12.72,12.72,0,0,0,2.59.39q3,0,3-7.5V309c0-4.92-1-7.39-3-7.39a12.72,12.72,0,0,0-2.59.39,12.92,12.92,0,0,1-2.7.39,5.26,5.26,0,0,1-4.24-2.1A7.91,7.91,0,0,1,0,295.09a8.24,8.24,0,0,1,2.15-5.9,7.49,7.49,0,0,1,5.68-2.26h.44a1.48,1.48,0,0,0,.44.11l7.83.78c2.2.21,5.14.33,8.81.33q4.3,0,6.84-.23l7.49-.66c1.69-.14,4.15-.22,7.39-.22a51.39,51.39,0,0,1,13.12,1.55,17.56,17.56,0,0,1,9.48,6.11A16.32,16.32,0,0,1,73.3,305.12Zm-40.12,7.39c0,1.47.29,2.38.88,2.75a5.22,5.22,0,0,0,2.76.44h3.41c3.83,0,6.85-.69,9.1-2.09A6.37,6.37,0,0,0,52.69,308q0-7.39-11.46-7.39a16.68,16.68,0,0,0-5.74.66q-2.31,1.11-2.31,4.74Zm22.16,26.23a8.43,8.43,0,0,0-4.08-7.28q-4.08-2.74-10.81-2.75h-3.3c-1.62,0-2.69.24-3.2.72a3.66,3.66,0,0,0-.77,2.7v8q0,4.2,2.43,5.79t8.81,1.6a12.26,12.26,0,0,0,7.89-2.43A7.79,7.79,0,0,0,55.34,338.74Z"/><path class="cls-7" d="M137,328.71c0,3.09-.38,5.14-1.15,6.17s-2.3,1.55-4.58,1.55H104.39a4.93,4.93,0,0,0-2.48.38c-.34.26-.5.9-.5,1.93a10.66,10.66,0,0,0,3,7.72,10,10,0,0,0,7.49,3.08q4.64,0,9.48-5.07a9.83,9.83,0,0,1,7.28-3.52,7.58,7.58,0,0,1,5.34,1.87,6.16,6.16,0,0,1,2,4.74q0,6.39-7,10.86t-17,4.46q-13.12,0-20.94-7.94t-7.83-21.16q0-13.33,7.77-21.55T111.33,304Q123,304,130,310.74T137,328.71Zm-35-5.51a1.78,1.78,0,0,0,.33,1.1c.22.29,1,.44,2.32.44H117a3.39,3.39,0,0,0,2-.38,1.93,1.93,0,0,0,.39-1.38,6.44,6.44,0,0,0-2.54-5,8.92,8.92,0,0,0-6-2.15,8.75,8.75,0,0,0-7.16,3.42A6.64,6.64,0,0,0,102,323.2Z"/><path class="cls-7" d="M197.2,328.71c0,3.09-.38,5.14-1.16,6.17s-2.3,1.55-4.57,1.55h-26.9a5,5,0,0,0-2.48.38c-.33.26-.49.9-.49,1.93a10.69,10.69,0,0,0,3,7.72,10,10,0,0,0,7.5,3.08q4.62,0,9.48-5.07a9.83,9.83,0,0,1,7.27-3.52,7.59,7.59,0,0,1,5.35,1.87,6.16,6.16,0,0,1,2,4.74q0,6.39-7,10.86t-17,4.46q-13.12,0-21-7.94t-7.82-21.16q0-13.33,7.77-21.55T171.52,304q11.67,0,18.68,6.72T197.2,328.71Zm-35-5.51a1.78,1.78,0,0,0,.33,1.1c.22.29,1,.44,2.31.44h12.35a3.39,3.39,0,0,0,2-.38,2,2,0,0,0,.38-1.38,6.43,6.43,0,0,0-2.53-5,9,9,0,0,0-6-2.15,8.78,8.78,0,0,0-7.16,3.42A6.62,6.62,0,0,0,162.15,323.2Z"/><path class="cls-5" d="M269.62,294.65l7.39,47.4L284,305.67a8.12,8.12,0,0,0,.33-2.09c0-1.33-.63-2-1.87-2a10.93,10.93,0,0,0-1.44.22h-.66a2.6,2.6,0,0,1-.66.11q-4.18,0-4.19-6.61,0-8.26,7.39-8.27a45.15,45.15,0,0,1,5.29.44,69.5,69.5,0,0,0,6.94.67q.23,0,8.82-1c1-.07,1.77-.11,2.43-.11a7.22,7.22,0,0,1,5.45,2.26,7.93,7.93,0,0,1,2.15,5.68,8.57,8.57,0,0,1-1.6,5.18,4.62,4.62,0,0,1-3.8,2.21,6.43,6.43,0,0,1-2.26-.39,5.33,5.33,0,0,0-1.82-.39c-1.25,0-2.16.92-2.75,2.76,0,.07-.33,1.51-1,4.3l-10,44.53a30.41,30.41,0,0,1-1.65,5.51c-.81,1.54-2.31,2.32-4.52,2.32-.81,0-2-.07-3.53-.22-.73-.08-2-.11-3.86-.11-1.54,0-2.9,0-4.07.11l-3.53.22H269a4.14,4.14,0,0,1-4-2q-1.11-2-2.2-9l-6-38.47L250.77,350c-.73,4.71-1.47,7.72-2.2,9a4.14,4.14,0,0,1-4,2c-.67,0-2-.07-4.08-.22-1-.08-2.35-.11-4-.11-.81,0-2,.05-3.69.16s-2.89.17-3.69.17c-2.21,0-3.71-.78-4.52-2.32a26.74,26.74,0,0,1-1.66-5.51l-1.32-5.62-8.82-38.91c-.29-1.4-.59-2.83-.88-4.3q-1-2.76-2.76-2.76a5.91,5.91,0,0,0-1.87.33,7.13,7.13,0,0,1-2.2.45,4.76,4.76,0,0,1-3.86-2.21,8.52,8.52,0,0,1-1.66-5.29,7.61,7.61,0,0,1,2.21-5.62,7.49,7.49,0,0,1,5.51-2.21,42.63,42.63,0,0,1,5.57.55,41.29,41.29,0,0,0,5.67.56,69.62,69.62,0,0,0,6.95-.67,45,45,0,0,1,5.29-.44q7.38,0,7.39,7.83,0,7-4.19,7.05a2.73,2.73,0,0,1-.67-.11h-.77a12.42,12.42,0,0,0-1.32-.22c-1.25,0-1.87.7-1.87,2.1a9.89,9.89,0,0,0,.22,2l7,36.38,7.27-47.4q.78-4.74,1.66-6.18a3.35,3.35,0,0,1,3.09-1.43c.88,0,2.24.1,4.07.28s3.2.27,4.08.27,2.23-.09,4-.27,3.14-.28,4-.28a3.7,3.7,0,0,1,3.75,2.54A38.87,38.87,0,0,1,269.62,294.65Z"/><path class="cls-5" d="M339,362.88q-13.68,0-21.11-7.71t-7.44-21.72q0-13.89,7.38-21.66T338.51,304q13.13,0,20.67,7.72t7.55,21.16q0,14.12-7.33,22T339,362.88Zm-.45-45.3a8.75,8.75,0,0,0-7.66,4.24Q328,326.06,328,333.45t2.81,11.68a9,9,0,0,0,7.88,4.19q10.26,0,10.25-15.87T338.51,317.58Z"/><path class="cls-5" d="M395.39,309v9.37a23.63,23.63,0,0,1,3.64-8.27q4.85-6.06,13.56-6.06a14.24,14.24,0,0,1,10.19,3.91,12.76,12.76,0,0,1,4.14,9.65,10.69,10.69,0,0,1-2.65,7.44,8.68,8.68,0,0,1-6.72,2.92,7.41,7.41,0,0,1-5.24-2,6.36,6.36,0,0,1-2.15-4.85,10.44,10.44,0,0,1,1.43-4.3h-.66q-7.38,0-9.92,7.83a48.06,48.06,0,0,0-2,14.44v4.19q0,4,.66,5.07a1.71,1.71,0,0,0,1.54.66,11.91,11.91,0,0,0,2.76-.44,12.18,12.18,0,0,1,2.64-.44,5.82,5.82,0,0,1,5.84,5.84,7.25,7.25,0,0,1-2.14,5.35,7.15,7.15,0,0,1-5.24,2.15c-1.1,0-3.16-.19-6.17-.55a60.37,60.37,0,0,0-6.95-.33,72.71,72.71,0,0,0-7.38.33c-3.53.36-5.7.55-6.51.55q-6.82,0-6.83-7.39c0-4.11,1.77-6.17,5.29-6.17a6.07,6.07,0,0,1,2,.39,5.71,5.71,0,0,0,1.65.38c1.25,0,1.87-2.05,1.87-6.17V324.63q0-6.28-1.87-6.28a7.7,7.7,0,0,0-1.71.38,7.26,7.26,0,0,1-1.93.39c-3.52,0-5.29-2-5.29-6.06a8.06,8.06,0,0,1,1.77-5.4,5.62,5.62,0,0,1,4.51-2.1,15.51,15.51,0,0,1,3.09.44,16.91,16.91,0,0,0,3.75.44,23.9,23.9,0,0,0,3.86-.44,24.87,24.87,0,0,1,3.74-.44Q395.39,305.56,395.39,309Z"/><path class="cls-5" d="M454.36,291v37.48l5.19-4.52c.44-.37,1.28-1.1,2.53-2.21,2-1.68,3-3,3-4a2.47,2.47,0,0,0-1-1.77l-1.76-1.65a4.83,4.83,0,0,1-1.43-3.75q0-5.07,5.73-5.07c1.32,0,3.35.15,6.06.44a60.7,60.7,0,0,0,6.17.44c2.13,0,4.78-.14,7.94-.44s4.81-.44,5-.44q6.51,0,6.51,6.62,0,6.39-5.08,6.39a11,11,0,0,1-2.42-.33,10.68,10.68,0,0,0-2.2-.33q-1.55,0-4.85,2.42l-4.63,3.42q-2.87,2.1-2.87,3.31a2.28,2.28,0,0,0,.44,1.21l1,1.43,8.6,13.56q3.52,5.63,5.63,5.62a6.61,6.61,0,0,0,1.76-.33l2.31-.33c3.31,0,5,2.1,5,6.28q0,6.94-6.5,6.95a47.57,47.57,0,0,1-5.29-.44,45.52,45.52,0,0,0-5.3-.44A37.61,37.61,0,0,0,478,361a31.44,31.44,0,0,1-4.19.44,5.11,5.11,0,0,1-3.85-1.77,5.87,5.87,0,0,1-1.66-4.18,9.48,9.48,0,0,1,1.33-3.86,3.73,3.73,0,0,0,.77-2.1q0-1.32-2.43-4.74l-3.63-5.07c-1.4-1.91-2.25-2.86-2.54-2.86-.74,0-1.87.7-3.42,2.09l-4,3.64v2.2c0,2.8.59,4.19,1.77,4.19a7.72,7.72,0,0,0,1.87-.33,7.92,7.92,0,0,1,2-.33q4.51,0,4.52,5.29,0,7.83-6.29,7.83a39.15,39.15,0,0,1-4.74-.44,72.85,72.85,0,0,0-9.37-.44,41.76,41.76,0,0,0-5.73.33,44.58,44.58,0,0,1-5.07.55,6.29,6.29,0,0,1-4.85-2,7.44,7.44,0,0,1-1.87-5.24q0-6.29,5.4-6.28c-.08,0,.84.22,2.75.66a3,3,0,0,0,.78.11c1.32,0,2-2.05,2-6.17V305.78q0-6.16-1.88-6.17a6.22,6.22,0,0,0-2,.44,5.64,5.64,0,0,1-1.76.22q-5.29,0-5.29-6.06,0-7.4,7.05-7.39a22.14,22.14,0,0,1,3.2.22,37.7,37.7,0,0,0,5.51.55,39.77,39.77,0,0,0,4.85-.44,32.11,32.11,0,0,1,3.64-.33Q454.37,286.82,454.36,291Z"/><path class="cls-5" d="M527.56,322.21l7.49,23.7,7.5-22.71a13.9,13.9,0,0,0,.88-4c0-.81-.59-1.43-1.76-1.87l-2-.77q-2.31-.88-2.31-4.64a6.7,6.7,0,0,1,1.59-4.57,5.15,5.15,0,0,1,4-1.82,44.78,44.78,0,0,1,5.07.44,42.52,42.52,0,0,0,5.07.44,45.22,45.22,0,0,0,5.29-.44,47.75,47.75,0,0,1,5.29-.44q6.62,0,6.62,7.17a7.09,7.09,0,0,1-1.49,4.46,4.4,4.4,0,0,1-3.58,1.93,8.06,8.06,0,0,1-1.49-.22,8.17,8.17,0,0,0-1.49-.22q-2,0-3.2,3.31l-1.43,3.85-9.48,24.69q-4.41,11.48-6.12,14.89a45.71,45.71,0,0,1-4.9,7.49q-8.82,11.13-21.61,11.14c-5.22,0-9.52-1.26-12.9-3.75a11.48,11.48,0,0,1-5.07-9.59,9,9,0,0,1,2.59-6.67,8.89,8.89,0,0,1,6.56-2.59,7.55,7.55,0,0,1,5.51,2,7,7,0,0,1,2.1,5.23,13.31,13.31,0,0,1-.22,2.43,6.55,6.55,0,0,0,2.76.66q3,0,5.67-3.53t2.7-5.95q0-2.2-3.74-11.13L509.15,322c-.88-2.06-1.76-3.09-2.65-3.09-.07,0-.62.07-1.65.22h-.44a1.9,1.9,0,0,1-.55.11q-5.62,0-5.63-6.28a7.59,7.59,0,0,1,1.93-5.24,6.21,6.21,0,0,1,4.8-2.15,46.21,46.21,0,0,1,5.23.44,44.24,44.24,0,0,0,5.24.44c1.4,0,3.75-.14,7.06-.44s5.07-.44,5.29-.44q6.06,0,6.06,6.39,0,4.53-4.63,5.29c-1.54.23-2.31.89-2.31,2A11.68,11.68,0,0,0,527.56,322.21Z"/></g></g></svg>