<svg xmlns="http://www.w3.org/2000/svg" viewBox="0 0 570.32 129.66"><defs><style>.cls-1{fill:#f5d326;}.cls-2{fill:#efb025;}.cls-3{fill:#d2dfe2;}.cls-4{fill:#f4d422;}.cls-5{fill:#202021;}.cls-6{fill:#392b1b;}.cls-7{fill:#fff;}</style></defs><g id="Layer_2" data-name="Layer 2"><g id="Layer_1-2" data-name="Layer 1"><polygon class="cls-1" points="58.62 30.5 53.67 30.5 51.19 34.8 53.67 39.09 58.62 39.09 61.1 34.8 58.62 30.5"/><path class="cls-2" d="M58.62,39.69H53.67a.61.61,0,0,1-.52-.3L50.67,35.1a.61.61,0,0,1,0-.61l2.48-4.29a.61.61,0,0,1,.52-.3h4.95a.6.6,0,0,1,.52.3l2.48,4.29a.61.61,0,0,1,0,.61l-2.48,4.29A.6.6,0,0,1,58.62,39.69ZM54,38.48h4.25l2.14-3.69-2.14-3.68H54l-2.13,3.68Z"/><polygon class="cls-1" points="58.62 39.09 53.67 39.09 51.19 43.38 53.67 47.67 58.62 47.67 61.1 43.38 58.62 39.09"/><path class="cls-2" d="M58.62,48.27H53.67a.59.59,0,0,1-.52-.3l-2.48-4.29a.59.59,0,0,1,0-.6l2.48-4.3a.61.61,0,0,1,.52-.3h4.95a.6.6,0,0,1,.52.3l2.48,4.3a.59.59,0,0,1,0,.6L59.14,48A.58.58,0,0,1,58.62,48.27ZM54,47.07h4.25l2.14-3.69-2.14-3.69H54l-2.13,3.69Z"/><polygon class="cls-1" points="51.19 34.8 46.24 34.8 43.76 39.09 46.24 43.38 51.19 43.38 53.67 39.09 51.19 34.8"/><path class="cls-2" d="M51.19,44H46.24a.6.6,0,0,1-.52-.3l-2.48-4.29a.61.61,0,0,1,0-.61l2.48-4.29a.6.6,0,0,1,.52-.3h4.95a.6.6,0,0,1,.52.3l2.48,4.29a.61.61,0,0,1,0,.61l-2.48,4.29A.6.6,0,0,1,51.19,44Zm-4.6-1.21h4.25L53,39.09,50.84,35.4H46.59l-2.13,3.69Z"/><polygon class="cls-1" points="66.06 34.8 61.1 34.8 58.62 39.09 61.1 43.38 66.06 43.38 68.53 39.09 66.06 34.8"/><path class="cls-2" d="M66.06,44h-5a.62.62,0,0,1-.52-.3L58.1,39.39a.61.61,0,0,1,0-.61l2.48-4.29a.62.62,0,0,1,.52-.3h5a.62.62,0,0,1,.52.3l2.47,4.29a.61.61,0,0,1,0,.61l-2.47,4.29A.62.62,0,0,1,66.06,44Zm-4.61-1.21h4.26l2.13-3.68L65.71,35.4H61.45l-2.13,3.69Z"/><polygon class="cls-3" points="51.18 34.8 46.23 34.8 43.75 39.09 46.23 43.38 51.18 43.38 53.66 39.09 51.18 34.8"/><polygon class="cls-3" points="66.07 34.8 61.11 34.8 58.63 39.09 61.11 43.38 66.07 43.38 68.54 39.09 66.07 34.8"/><polygon class="cls-4" points="58.62 39.09 53.67 39.09 51.19 43.38 53.67 47.67 58.62 47.67 61.1 43.38 58.62 39.09"/><polygon class="cls-4" points="58.62 30.5 53.67 30.5 51.19 34.8 53.67 39.09 58.62 39.09 61.1 34.8 58.62 30.5"/><polygon class="cls-4" points="61.1 43.38 56.15 51.96 51.19 43.38 61.1 43.38"/><line class="cls-1" x1="53.67" y1="47.67" x2="58.62" y2="47.67"/><path class="cls-5" d="M69.07,38.78l-2.48-4.29a.62.62,0,0,0-.52-.3H61.45L59.32,30.5l2.13-3.68h2.14a.61.61,0,0,0,0-1.21H61.1a.6.6,0,0,0-.52.3l-2.31,4H54l-2.31-4a.59.59,0,0,0-.52-.3H48.71a.61.61,0,1,0,0,1.21h2.13L53,30.5l-2.14,3.69H46.23a.6.6,0,0,0-.52.3l-2.48,4.29a.61.61,0,0,0,0,.61l2.48,4.29a.6.6,0,0,0,.52.3h4.61l4.78,8.28a.61.61,0,0,0,1.05,0L59.14,48h0l2.31-4h4.62a.62.62,0,0,0,.52-.3l2.48-4.29A.66.66,0,0,0,69.07,38.78Zm-10.8,8.29H54l-1.1-1.91L52.24,44h7.82L58.43,46.8Zm0-7.38,1.79,3.08H52.24L54,39.69ZM54,31.11h4.25l2.14,3.68-2.14,3.69H54l-2.13-3.69Zm-9.58,8,2.13-3.69h4.26L53,39.09l-2.13,3.68H46.57ZM56.15,50.75l-1.44-2.48h2.87Zm9.57-8H61.46l-2.13-3.68,2.13-3.69h4.26l2.13,3.69Z"/><polygon class="cls-1" points="58.62 81.99 53.67 81.99 51.19 86.28 53.67 90.58 58.62 90.58 61.1 86.28 58.62 81.99"/><path class="cls-2" d="M58.62,91.18H53.67a.61.61,0,0,1-.52-.3l-2.48-4.29a.61.61,0,0,1,0-.61l2.48-4.29a.61.61,0,0,1,.52-.3h4.95a.6.6,0,0,1,.52.3L61.62,86a.61.61,0,0,1,0,.61l-2.48,4.29A.6.6,0,0,1,58.62,91.18ZM54,90h4.25l2.14-3.68L58.27,82.6H54l-2.13,3.69Z"/><polygon class="cls-1" points="58.62 90.58 53.67 90.58 51.19 94.87 53.67 99.16 58.62 99.16 61.1 94.87 58.62 90.58"/><path class="cls-2" d="M58.62,99.76H53.67a.59.59,0,0,1-.52-.3l-2.48-4.29a.59.59,0,0,1,0-.6l2.48-4.3a.61.61,0,0,1,.52-.3h4.95a.6.6,0,0,1,.52.3l2.48,4.3a.59.59,0,0,1,0,.6l-2.48,4.29A.58.58,0,0,1,58.62,99.76ZM54,98.56h4.25l2.14-3.69-2.14-3.69H54l-2.13,3.69Z"/><polygon class="cls-1" points="51.19 86.28 46.24 86.28 43.76 90.58 46.24 94.87 51.19 94.87 53.67 90.58 51.19 86.28"/><path class="cls-2" d="M51.19,95.47H46.24a.6.6,0,0,1-.52-.3l-2.48-4.29a.61.61,0,0,1,0-.61L45.72,86a.6.6,0,0,1,.52-.3h4.95a.6.6,0,0,1,.52.3l2.48,4.29a.61.61,0,0,1,0,.61l-2.48,4.29A.6.6,0,0,1,51.19,95.47Zm-4.6-1.21h4.25L53,90.58l-2.13-3.69H46.59l-2.13,3.69Z"/><polygon class="cls-1" points="66.06 86.28 61.1 86.28 58.62 90.58 61.1 94.87 66.06 94.87 68.53 90.58 66.06 86.28"/><path class="cls-2" d="M66.06,95.47h-5a.62.62,0,0,1-.52-.3L58.1,90.88a.61.61,0,0,1,0-.61L60.58,86a.62.62,0,0,1,.52-.3h5a.62.62,0,0,1,.52.3l2.47,4.29a.61.61,0,0,1,0,.61l-2.47,4.29A.62.62,0,0,1,66.06,95.47Zm-4.61-1.21h4.26l2.13-3.68-2.13-3.69H61.45l-2.13,3.69Z"/><polygon class="cls-3" points="51.18 86.29 46.23 86.29 43.75 90.58 46.23 94.87 51.18 94.87 53.66 90.58 51.18 86.29"/><polygon class="cls-3" points="66.07 86.29 61.11 86.29 58.63 90.58 61.11 94.87 66.07 94.87 68.54 90.58 66.07 86.29"/><polygon class="cls-4" points="58.62 90.58 53.67 90.58 51.19 94.87 53.67 99.16 58.62 99.16 61.1 94.87 58.62 90.58"/><polygon class="cls-4" points="58.62 82 53.67 82 51.19 86.29 53.67 90.58 58.62 90.58 61.1 86.29 58.62 82"/><polygon class="cls-4" points="61.1 94.87 56.15 103.45 51.19 94.87 61.1 94.87"/><line class="cls-1" x1="53.67" y1="99.16" x2="58.62" y2="99.16"/><path class="cls-5" d="M69.07,90.28,66.59,86a.61.61,0,0,0-.52-.31H61.45L59.32,82l2.13-3.69h2.14a.6.6,0,1,0,0-1.2H61.1a.6.6,0,0,0-.52.3l-2.31,4H54l-2.31-4a.59.59,0,0,0-.52-.3H48.71a.6.6,0,1,0,0,1.2h2.13L53,82l-2.14,3.69H46.23a.59.59,0,0,0-.52.31l-2.48,4.29a.59.59,0,0,0,0,.6l2.48,4.29a.58.58,0,0,0,.52.3h4.61l4.78,8.28a.61.61,0,0,0,1.05,0l2.47-4.29h0l2.31-4h4.62a.6.6,0,0,0,.52-.3l2.48-4.29A.64.64,0,0,0,69.07,90.28Zm-10.8,8.28H54l-1.1-1.9-.68-1.19h7.82l-1.63,2.82Zm0-7.38,1.79,3.09H52.24L54,91.18ZM54,82.6h4.25l2.14,3.69L58.27,90H54l-2.13-3.69Zm-9.58,8,2.13-3.69h4.26L53,90.58l-2.13,3.69H46.57Zm11.71,11.67-1.44-2.49h2.87Zm9.57-8H61.46l-2.13-3.69,2.13-3.69h4.26l2.13,3.69Z"/><polygon class="cls-1" points="58.62 56.25 53.67 56.25 51.19 60.54 53.67 64.83 58.62 64.83 61.1 60.54 58.62 56.25"/><path class="cls-2" d="M58.62,65.43H53.67a.59.59,0,0,1-.52-.3l-2.48-4.29a.59.59,0,0,1,0-.6L53.15,56a.59.59,0,0,1,.52-.3h4.95a.58.58,0,0,1,.52.3l2.48,4.29a.59.59,0,0,1,0,.6l-2.48,4.29A.58.58,0,0,1,58.62,65.43ZM54,64.23h4.25l2.14-3.69-2.14-3.69H54l-2.13,3.69Z"/><polygon class="cls-1" points="58.62 64.83 53.67 64.83 51.19 69.12 53.67 73.41 58.62 73.41 61.1 69.12 58.62 64.83"/><path class="cls-2" d="M58.62,74H53.67a.6.6,0,0,1-.52-.31l-2.48-4.29a.59.59,0,0,1,0-.6l2.48-4.29a.59.59,0,0,1,.52-.3h4.95a.58.58,0,0,1,.52.3l2.48,4.29a.59.59,0,0,1,0,.6l-2.48,4.29A.59.59,0,0,1,58.62,74ZM54,72.81h4.25l2.14-3.69-2.14-3.69H54l-2.13,3.69Z"/><polygon class="cls-1" points="51.19 60.54 46.24 60.54 43.76 64.83 46.24 69.12 51.19 69.12 53.67 64.83 51.19 60.54"/><path class="cls-2" d="M51.19,69.72H46.24a.58.58,0,0,1-.52-.3l-2.48-4.29a.59.59,0,0,1,0-.6l2.48-4.29a.58.58,0,0,1,.52-.3h4.95a.58.58,0,0,1,.52.3l2.48,4.29a.59.59,0,0,1,0,.6l-2.48,4.29A.58.58,0,0,1,51.19,69.72Zm-4.6-1.2h4.25L53,64.83l-2.13-3.69H46.59l-2.13,3.69Z"/><polygon class="cls-1" points="66.06 60.54 61.1 60.54 58.62 64.83 61.1 69.12 66.06 69.12 68.53 64.83 66.06 60.54"/><path class="cls-2" d="M66.06,69.72h-5a.6.6,0,0,1-.52-.3L58.1,65.13a.59.59,0,0,1,0-.6l2.48-4.29a.6.6,0,0,1,.52-.3h5a.6.6,0,0,1,.52.3l2.47,4.29a.59.59,0,0,1,0,.6l-2.47,4.29A.6.6,0,0,1,66.06,69.72Zm-4.61-1.2h4.26l2.13-3.69-2.13-3.69H61.45l-2.13,3.69Z"/><line class="cls-1" x1="53.67" y1="73.41" x2="58.62" y2="73.41"/><path class="cls-6" d="M58.62,74H53.67a.61.61,0,0,1,0-1.21h4.95a.61.61,0,1,1,0,1.21Z"/><polygon class="cls-3" points="51.18 60.54 46.23 60.54 43.75 64.83 46.23 69.12 51.18 69.12 53.66 64.83 51.18 60.54"/><polygon class="cls-3" points="66.07 60.54 61.11 60.54 58.63 64.83 61.11 69.12 66.07 69.12 68.54 64.83 66.07 60.54"/><polygon class="cls-4" points="58.62 64.83 53.67 64.83 51.19 69.12 53.67 73.42 58.62 73.42 61.1 69.12 58.62 64.83"/><polygon class="cls-4" points="58.62 56.25 53.67 56.25 51.19 60.54 53.67 64.83 58.62 64.83 61.1 60.54 58.62 56.25"/><polygon class="cls-4" points="61.1 69.12 56.15 77.71 51.19 69.12 61.1 69.12"/><line class="cls-1" x1="53.67" y1="73.41" x2="58.62" y2="73.41"/><path class="cls-5" d="M69.07,64.53l-2.48-4.29a.62.62,0,0,0-.52-.3H61.45l-2.13-3.69,2.13-3.69h2.14a.61.61,0,0,0,0-1.21H61.1a.62.62,0,0,0-.52.3l-2.31,4H54l-2.31-4a.6.6,0,0,0-.52-.31H48.71a.61.61,0,1,0,0,1.21h2.13L53,56.25l-2.14,3.69H46.23a.6.6,0,0,0-.52.3l-2.48,4.29a.59.59,0,0,0,0,.6l2.48,4.29a.59.59,0,0,0,.52.31h4.61L55.62,78a.61.61,0,0,0,1.05,0l2.47-4.29,2.31-4h4.62a.61.61,0,0,0,.52-.31l2.48-4.29A.64.64,0,0,0,69.07,64.53Zm-9.92,6.76-.87,1.52H54l-1.27-2.2-.51-.88h7.82Zm-6.91-2.77L54,65.44h4.25l1.79,3.08ZM54,56.85h4.25l2.14,3.69-2.14,3.69H54l-2.13-3.69Zm-9.58,8,2.13-3.68h4.26L53,64.83l-2.13,3.69H46.57ZM56.15,76.5,54.71,74h2.87Zm9.57-8H61.46l-2.13-3.69,2.13-3.68h4.26l2.13,3.68Z"/><polygon class="cls-7" points="0 32.42 56.15 8.35 105.06 36.59 105.06 88.9 112.29 88.9 112.29 32.42 56.15 0 0 32.42"/><polygon class="cls-7" points="112.29 97.25 56.15 121.31 7.23 93.07 7.23 40.77 0 40.77 0 97.25 56.15 129.66 112.29 97.25"/><path class="cls-7" d="M199.93,67a13.68,13.68,0,0,1,2.66,8.55A12.66,12.66,0,0,1,197,86.6q-5.58,3.87-16.29,3.86H152.43V35.78h26.72q10,0,15.35,3.82A12.13,12.13,0,0,1,199.85,50a13.13,13.13,0,0,1-7.26,12A14.42,14.42,0,0,1,199.93,67ZM165,45.31V58.2h12.58q4.68,0,7.11-1.64a5.49,5.49,0,0,0,2.42-4.85,5.39,5.39,0,0,0-2.42-4.8q-2.43-1.6-7.11-1.6Zm22.3,34a5.59,5.59,0,0,0,2.54-5.08q0-6.79-10.08-6.79H165V80.93h14.76C183.11,80.93,185.62,80.39,187.31,79.29Z"/><path class="cls-7" d="M252.27,72.89H220.48a9.88,9.88,0,0,0,4.06,6.17,13.46,13.46,0,0,0,8,2.26,16.14,16.14,0,0,0,5.82-1,14.09,14.09,0,0,0,4.73-3.09l6.48,7q-5.94,6.79-17.34,6.8a27.41,27.41,0,0,1-12.58-2.77,20.34,20.34,0,0,1-8.44-7.7,21.18,21.18,0,0,1-3-11.17,21.47,21.47,0,0,1,2.93-11.13,20.52,20.52,0,0,1,8.05-7.74,25,25,0,0,1,22.62-.12,19.38,19.38,0,0,1,7.85,7.62,22.73,22.73,0,0,1,2.85,11.52C252.51,69.76,252.43,70.85,252.27,72.89ZM223.76,59.37a10,10,0,0,0-3.44,6.41H241a10.06,10.06,0,0,0-3.43-6.37A10.28,10.28,0,0,0,230.71,57,10.49,10.49,0,0,0,223.76,59.37Z"/><path class="cls-7" d="M301.57,72.89H269.78a9.88,9.88,0,0,0,4.06,6.17,13.44,13.44,0,0,0,8,2.26,16.22,16.22,0,0,0,5.82-1,14,14,0,0,0,4.72-3.09l6.49,7q-5.94,6.79-17.35,6.8a27.37,27.37,0,0,1-12.57-2.77,20.34,20.34,0,0,1-8.44-7.7,21.18,21.18,0,0,1-3-11.17,21.47,21.47,0,0,1,2.93-11.13,20.46,20.46,0,0,1,8.05-7.74,24.94,24.94,0,0,1,22.61-.12A19.32,19.32,0,0,1,299,58.08a22.63,22.63,0,0,1,2.86,11.52C301.81,69.76,301.73,70.85,301.57,72.89ZM273.06,59.37a10,10,0,0,0-3.44,6.41h20.7a10.07,10.07,0,0,0-3.44-6.37A10.24,10.24,0,0,0,280,57,10.49,10.49,0,0,0,273.06,59.37Z"/><path class="cls-5" d="M391.89,35.78,374,90.46H360.4l-12-37L336,90.46H322.43l-18-54.68h13.13l12.34,38.43,12.89-38.43h11.72L367,74.53l12.74-38.75Z"/><path class="cls-5" d="M403,88.32a20.55,20.55,0,0,1-8.24-7.7,21.18,21.18,0,0,1-3-11.17,21.18,21.18,0,0,1,3-11.17,20.55,20.55,0,0,1,8.24-7.7,26.92,26.92,0,0,1,23.79,0,20.7,20.7,0,0,1,8.2,7.7,21.18,21.18,0,0,1,3,11.17,21.18,21.18,0,0,1-3,11.17,20.7,20.7,0,0,1-8.2,7.7,26.92,26.92,0,0,1-23.79,0Zm19.61-10.4a11.79,11.79,0,0,0,3-8.47,11.83,11.83,0,0,0-3-8.48,10.16,10.16,0,0,0-7.7-3.16A10.27,10.27,0,0,0,407.2,61a11.72,11.72,0,0,0-3.05,8.48,11.68,11.68,0,0,0,3.05,8.47,10.28,10.28,0,0,0,7.73,3.17A10.16,10.16,0,0,0,422.63,77.92Z"/><path class="cls-5" d="M463.64,49.37a22,22,0,0,1,8.56-1.56V59.06c-1.36-.11-2.27-.16-2.74-.16q-5.23,0-8.2,2.93t-3,8.79V90.46H446.1v-42h11.64V54A13.59,13.59,0,0,1,463.64,49.37Z"/><path class="cls-5" d="M497.51,74l-5.86,5.78v10.7H479.46v-58h12.19V65.31l17.81-16.88H524L506.49,66.25l19.07,24.21H510.79Z"/><path class="cls-5" d="M570.32,48.43,551.34,93q-2.9,7.27-7.15,10.24a17.57,17.57,0,0,1-10.27,3,21.3,21.3,0,0,1-6.49-1,14.32,14.32,0,0,1-5.23-2.81l4.45-8.68a10.44,10.44,0,0,0,3.24,2,10.13,10.13,0,0,0,3.64.7,6.43,6.43,0,0,0,4.06-1.21,10.3,10.3,0,0,0,2.81-4l.16-.39-18.2-42.35h12.57L546.73,77l11.88-28.52Z"/></g></g></svg>