<svg xmlns="http://www.w3.org/2000/svg" viewBox="0 0 590.81 384.05"><defs><style>.cls-1{fill:#f5d326;}.cls-2{fill:#efb025;}.cls-3{fill:#d2dfe2;}.cls-4{fill:#f4d422;}.cls-5{fill:#202021;}.cls-6{fill:#392b1b;}</style></defs><g id="Layer_2" data-name="Layer 2"><g id="Layer_1-2" data-name="Layer 1"><polygon class="cls-1" points="295.4 56.35 286.24 56.35 281.67 64.28 286.24 72.21 295.4 72.21 299.97 64.28 295.4 56.35"/><path class="cls-2" d="M295.4,73.32h-9.16a1.12,1.12,0,0,1-1-.55l-4.58-7.93a1.12,1.12,0,0,1,0-1.12l4.58-7.92a1.13,1.13,0,0,1,1-.56h9.16a1.13,1.13,0,0,1,1,.56l4.58,7.92a1.12,1.12,0,0,1,0,1.12l-4.58,7.93A1.12,1.12,0,0,1,295.4,73.32Zm-8.51-2.22h7.86l3.94-6.82-3.94-6.81h-7.86L283,64.28Z"/><polygon class="cls-1" points="295.4 72.21 286.24 72.21 281.67 80.14 286.24 88.06 295.4 88.06 299.97 80.14 295.4 72.21"/><path class="cls-2" d="M295.4,89.18h-9.16a1.13,1.13,0,0,1-1-.56l-4.58-7.93a1.1,1.1,0,0,1,0-1.11l4.58-7.93a1.12,1.12,0,0,1,1-.55h9.16a1.12,1.12,0,0,1,1,.55l4.58,7.93a1.1,1.1,0,0,1,0,1.11l-4.58,7.93A1.13,1.13,0,0,1,295.4,89.18ZM286.89,87h7.86l3.94-6.81-3.94-6.82h-7.86L283,80.14Z"/><polygon class="cls-1" points="281.67 64.28 272.51 64.28 267.94 72.21 272.51 80.14 281.67 80.14 286.24 72.21 281.67 64.28"/><path class="cls-2" d="M281.67,81.25h-9.16a1.1,1.1,0,0,1-1-.56L267,72.77a1.12,1.12,0,0,1,0-1.12l4.58-7.93a1.11,1.11,0,0,1,1-.55h9.16a1.12,1.12,0,0,1,1,.55l4.58,7.93a1.12,1.12,0,0,1,0,1.12l-4.58,7.92A1.11,1.11,0,0,1,281.67,81.25ZM273.16,79H281L285,72.21,281,65.39h-7.86l-3.94,6.82Z"/><polygon class="cls-1" points="309.13 64.28 299.97 64.28 295.4 72.21 299.97 80.14 309.13 80.14 313.7 72.21 309.13 64.28"/><path class="cls-2" d="M309.13,81.25H300a1.1,1.1,0,0,1-1-.56l-4.58-7.92a1.12,1.12,0,0,1,0-1.12L299,63.72a1.11,1.11,0,0,1,1-.55h9.16a1.12,1.12,0,0,1,1,.55l4.58,7.93a1.12,1.12,0,0,1,0,1.12l-4.58,7.92A1.11,1.11,0,0,1,309.13,81.25ZM300.62,79h7.86l3.94-6.81-3.94-6.82h-7.86l-3.94,6.82Z"/><polygon class="cls-3" points="281.65 64.28 272.49 64.28 267.92 72.21 272.49 80.14 281.65 80.14 286.22 72.21 281.65 64.28"/><polygon class="cls-3" points="309.15 64.28 299.99 64.28 295.42 72.21 299.99 80.14 309.15 80.14 313.72 72.21 309.15 64.28"/><polygon class="cls-4" points="295.4 72.21 286.24 72.21 281.67 80.14 286.24 88.06 295.4 88.06 299.97 80.14 295.4 72.21"/><polygon class="cls-4" points="295.4 56.35 286.24 56.35 281.67 64.28 286.24 72.21 295.4 72.21 299.97 64.28 295.4 56.35"/><polygon class="cls-4" points="299.97 80.14 290.82 95.99 281.67 80.14 299.97 80.14"/><line class="cls-1" x1="286.24" y1="88.06" x2="295.4" y2="88.06"/><path class="cls-5" d="M314.69,71.65l-4.58-7.93a1.12,1.12,0,0,0-1-.55h-8.54l-3.93-6.82,3.94-6.81h3.94a1.12,1.12,0,1,0,0-2.23H300a1.13,1.13,0,0,0-1,.56l-4.27,7.37h-7.85l-4.26-7.37a1.13,1.13,0,0,0-1-.56h-4.58a1.12,1.12,0,1,0,0,2.23H281L285,56.35,281,63.17h-8.53a1.11,1.11,0,0,0-1,.55L267,71.65a1.12,1.12,0,0,0,0,1.12l4.58,7.92a1.1,1.1,0,0,0,1,.56H281l8.83,15.3a1.12,1.12,0,0,0,1,.55,1.11,1.11,0,0,0,1-.55l4.58-7.93h0l4.25-7.37h8.54a1.11,1.11,0,0,0,1-.56l4.58-7.92A1.12,1.12,0,0,0,314.69,71.65ZM294.75,87h-7.86l-2-3.51-1.27-2.19H298l-3,5.21Zm0-13.63L298,79H283.59l3.3-5.7Zm-7.86-15.85h7.86l3.94,6.81-3.94,6.82h-7.86L283,64.28ZM269.2,72.21l3.94-6.82H281l3.94,6.82L281,79h-7.86Zm21.62,21.55-2.65-4.58h5.3ZM308.5,79h-7.86l-3.94-6.81,3.94-6.82h7.86l3.94,6.82Z"/><polygon class="cls-1" points="295.4 151.48 286.24 151.48 281.67 159.41 286.24 167.34 295.4 167.34 299.97 159.41 295.4 151.48"/><path class="cls-2" d="M295.4,168.45h-9.16a1.11,1.11,0,0,1-1-.56L280.7,160a1.12,1.12,0,0,1,0-1.12l4.58-7.92a1.11,1.11,0,0,1,1-.56h9.16a1.11,1.11,0,0,1,1,.56l4.58,7.92a1.12,1.12,0,0,1,0,1.12l-4.58,7.92A1.11,1.11,0,0,1,295.4,168.45Zm-8.51-2.23h7.86l3.94-6.81-3.94-6.81h-7.86L283,159.41Z"/><polygon class="cls-1" points="295.4 167.34 286.24 167.34 281.67 175.26 286.24 183.19 295.4 183.19 299.97 175.26 295.4 167.34"/><path class="cls-2" d="M295.4,184.3h-9.16a1.12,1.12,0,0,1-1-.55l-4.58-7.93a1.1,1.1,0,0,1,0-1.11l4.58-7.93a1.13,1.13,0,0,1,1-.56h9.16a1.13,1.13,0,0,1,1,.56l4.58,7.93a1.1,1.1,0,0,1,0,1.11l-4.58,7.93A1.12,1.12,0,0,1,295.4,184.3Zm-8.51-2.22h7.86l3.94-6.82-3.94-6.81h-7.86L283,175.26Z"/><polygon class="cls-1" points="281.67 159.41 272.51 159.41 267.94 167.34 272.51 175.26 281.67 175.26 286.24 167.34 281.67 159.41"/><path class="cls-2" d="M281.67,176.38h-9.16a1.12,1.12,0,0,1-1-.56L267,167.89a1.1,1.1,0,0,1,0-1.11l4.58-7.93a1.11,1.11,0,0,1,1-.55h9.16a1.12,1.12,0,0,1,1,.55l4.58,7.93a1.1,1.1,0,0,1,0,1.11l-4.58,7.93A1.13,1.13,0,0,1,281.67,176.38Zm-8.51-2.23H281l3.94-6.81L281,160.52h-7.86l-3.94,6.82Z"/><polygon class="cls-1" points="309.13 159.41 299.97 159.41 295.4 167.34 299.97 175.26 309.13 175.26 313.7 167.34 309.13 159.41"/><path class="cls-2" d="M309.13,176.38H300a1.12,1.12,0,0,1-1-.56l-4.58-7.93a1.1,1.1,0,0,1,0-1.11l4.58-7.93a1.11,1.11,0,0,1,1-.55h9.16a1.12,1.12,0,0,1,1,.55l4.58,7.93a1.1,1.1,0,0,1,0,1.11l-4.58,7.93A1.13,1.13,0,0,1,309.13,176.38Zm-8.51-2.23h7.86l3.94-6.81-3.94-6.82h-7.86l-3.94,6.82Z"/><polygon class="cls-3" points="281.65 159.41 272.49 159.41 267.92 167.34 272.49 175.27 281.65 175.27 286.22 167.34 281.65 159.41"/><polygon class="cls-3" points="309.15 159.41 299.99 159.41 295.42 167.34 299.99 175.27 309.15 175.27 313.72 167.34 309.15 159.41"/><polygon class="cls-4" points="295.4 167.34 286.24 167.34 281.67 175.27 286.24 183.19 295.4 183.19 299.97 175.27 295.4 167.34"/><polygon class="cls-4" points="295.4 151.49 286.24 151.49 281.67 159.41 286.24 167.34 295.4 167.34 299.97 159.41 295.4 151.49"/><polygon class="cls-4" points="299.97 175.27 290.82 191.12 281.67 175.27 299.97 175.27"/><line class="cls-1" x1="286.24" y1="183.19" x2="295.4" y2="183.19"/><path class="cls-5" d="M314.69,166.78l-4.58-7.92a1.11,1.11,0,0,0-1-.56h-8.54l-3.94-6.82,3.95-6.82h3.94a1.11,1.11,0,1,0,0-2.22H300a1.12,1.12,0,0,0-1,.55l-4.27,7.38H286.9L282.63,143a1.12,1.12,0,0,0-1-.55h-4.58a1.11,1.11,0,1,0,0,2.22H281l3.94,6.82L281,158.3h-8.53a1.1,1.1,0,0,0-1,.56L267,166.78a1.12,1.12,0,0,0,0,1.12l4.58,7.92a1.1,1.1,0,0,0,1,.56H281l8.83,15.3a1.12,1.12,0,0,0,1,.55,1.11,1.11,0,0,0,1-.55l4.58-7.93h0l4.25-7.37h8.54a1.11,1.11,0,0,0,1-.56l4.58-7.92A1.12,1.12,0,0,0,314.69,166.78Zm-19.94,15.3h-7.86l-2-3.51-1.27-2.19H298l-3,5.21Zm0-13.63,3.29,5.7H283.59l3.3-5.7Zm-7.86-15.85h7.86l3.94,6.81-3.94,6.82h-7.86L283,159.41ZM269.2,167.34l3.94-6.81H281l3.94,6.81L281,174.15h-7.86Zm21.62,21.55-2.65-4.58h5.3Zm17.68-14.74h-7.86l-3.94-6.81,3.94-6.81h7.86l3.94,6.81Z"/><polygon class="cls-1" points="295.4 103.92 286.24 103.92 281.67 111.85 286.24 119.77 295.4 119.77 299.97 111.85 295.4 103.92"/><path class="cls-2" d="M295.4,120.89h-9.16a1.13,1.13,0,0,1-1-.56l-4.58-7.93a1.1,1.1,0,0,1,0-1.11l4.58-7.93a1.13,1.13,0,0,1,1-.56h9.16a1.13,1.13,0,0,1,1,.56l4.58,7.93a1.1,1.1,0,0,1,0,1.11l-4.58,7.93A1.13,1.13,0,0,1,295.4,120.89Zm-8.51-2.23h7.86l3.94-6.81L294.75,105h-7.86L283,111.85Z"/><polygon class="cls-1" points="295.4 119.77 286.24 119.77 281.67 127.7 286.24 135.63 295.4 135.63 299.97 127.7 295.4 119.77"/><path class="cls-2" d="M295.4,136.74h-9.16a1.11,1.11,0,0,1-1-.56l-4.58-7.92a1.12,1.12,0,0,1,0-1.12l4.58-7.92a1.11,1.11,0,0,1,1-.56h9.16a1.11,1.11,0,0,1,1,.56l4.58,7.92a1.12,1.12,0,0,1,0,1.12l-4.58,7.92A1.11,1.11,0,0,1,295.4,136.74Zm-8.51-2.23h7.86l3.94-6.81-3.94-6.81h-7.86L283,127.7Z"/><polygon class="cls-1" points="281.67 111.85 272.51 111.85 267.94 119.77 272.51 127.7 281.67 127.7 286.24 119.77 281.67 111.85"/><path class="cls-2" d="M281.67,128.81h-9.16a1.11,1.11,0,0,1-1-.55L267,120.33a1.1,1.1,0,0,1,0-1.11l4.58-7.93a1.12,1.12,0,0,1,1-.56h9.16a1.13,1.13,0,0,1,1,.56l4.58,7.93a1.1,1.1,0,0,1,0,1.11l-4.58,7.93A1.12,1.12,0,0,1,281.67,128.81Zm-8.51-2.22H281l3.94-6.82L281,113h-7.86l-3.94,6.81Z"/><polygon class="cls-1" points="309.13 111.85 299.97 111.85 295.4 119.77 299.97 127.7 309.13 127.7 313.7 119.77 309.13 111.85"/><path class="cls-2" d="M309.13,128.81H300a1.11,1.11,0,0,1-1-.55l-4.58-7.93a1.1,1.1,0,0,1,0-1.11l4.58-7.93a1.12,1.12,0,0,1,1-.56h9.16a1.13,1.13,0,0,1,1,.56l4.58,7.93a1.1,1.1,0,0,1,0,1.11l-4.58,7.93A1.12,1.12,0,0,1,309.13,128.81Zm-8.51-2.22h7.86l3.94-6.82L308.48,113h-7.86l-3.94,6.81Z"/><line class="cls-1" x1="286.24" y1="135.63" x2="295.4" y2="135.63"/><path class="cls-6" d="M295.4,136.74h-9.16a1.11,1.11,0,1,1,0-2.22h9.16a1.11,1.11,0,1,1,0,2.22Z"/><polygon class="cls-3" points="281.65 111.85 272.49 111.85 267.92 119.78 272.49 127.7 281.65 127.7 286.22 119.78 281.65 111.85"/><polygon class="cls-3" points="309.15 111.85 299.99 111.85 295.42 119.78 299.99 127.7 309.15 127.7 313.72 119.78 309.15 111.85"/><polygon class="cls-4" points="295.4 119.78 286.24 119.78 281.67 127.7 286.24 135.63 295.4 135.63 299.97 127.7 295.4 119.78"/><polygon class="cls-4" points="295.4 103.92 286.24 103.92 281.67 111.85 286.24 119.78 295.4 119.78 299.97 111.85 295.4 103.92"/><polygon class="cls-4" points="299.97 127.7 290.82 143.56 281.67 127.7 299.97 127.7"/><line class="cls-1" x1="286.24" y1="135.62" x2="295.4" y2="135.62"/><path class="cls-5" d="M314.69,119.22l-4.58-7.93a1.12,1.12,0,0,0-1-.55h-8.54l-3.94-6.83,3.95-6.81h3.94a1.12,1.12,0,1,0,0-2.23H300a1.13,1.13,0,0,0-1,.56l-4.27,7.38H286.9l-4.27-7.38a1.13,1.13,0,0,0-1-.56h-4.58a1.12,1.12,0,1,0,0,2.23H281l3.94,6.81L281,110.74h-8.53a1.11,1.11,0,0,0-1,.55L267,119.22a1.1,1.1,0,0,0,0,1.11l4.58,7.93a1.12,1.12,0,0,0,1,.56H281l8.83,15.3a1.12,1.12,0,0,0,1,.55,1.11,1.11,0,0,0,1-.55l4.58-7.93,4.25-7.37h8.54a1.13,1.13,0,0,0,1-.56l4.58-7.93A1.1,1.1,0,0,0,314.69,119.22Zm-18.32,12.49-1.61,2.8h-7.88l-2.34-4-1-1.64H298Zm-12.78-5.12,3.3-5.7h7.86l3.29,5.7Zm3.3-21.55h7.86l3.94,6.81-3.94,6.81h-7.86L283,111.85ZM269.2,119.78l3.94-6.82H281l3.94,6.82L281,126.59h-7.86Zm21.62,21.55-2.65-4.59h5.3Zm17.68-14.74h-7.86l-3.94-6.81,3.94-6.82h7.86l3.94,6.82Z"/><polygon class="cls-4" points="187.09 59.89 290.82 15.43 381.19 67.6 381.19 164.24 394.55 164.24 394.55 59.89 290.82 0 187.09 59.89"/><polygon class="cls-4" points="394.55 179.66 290.82 224.13 200.45 171.95 200.45 75.31 187.09 75.31 187.09 179.66 290.82 239.55 394.55 179.66"/><path class="cls-5" d="M67.16,328.54a19.37,19.37,0,0,1,3.75,12.1q0,10.16-7.9,15.63t-23,5.47H0V284.42H37.78q14.13,0,21.7,5.41A17.13,17.13,0,0,1,67,304.52a18.56,18.56,0,0,1-10.27,17A20.47,20.47,0,0,1,67.16,328.54ZM17.78,297.89v18.23H35.57q6.61,0,10-2.32A7.75,7.75,0,0,0,49,307a7.6,7.6,0,0,0-3.42-6.79q-3.43-2.27-10-2.27Zm31.54,48.05a8,8,0,0,0,3.59-7.18q0-9.6-14.25-9.61H17.78v19.11H38.66Q45.72,348.26,49.32,345.94Z"/><path class="cls-5" d="M141.16,336.88H96.21a14,14,0,0,0,5.74,8.73,19,19,0,0,0,11.26,3.2,22.79,22.79,0,0,0,8.23-1.38,19.89,19.89,0,0,0,6.68-4.36l9.17,9.94q-8.39,9.62-24.52,9.61A38.82,38.82,0,0,1,95,358.7a28.76,28.76,0,0,1-11.93-10.88,30,30,0,0,1-4.2-15.8A30.41,30.41,0,0,1,83,316.28a29.11,29.11,0,0,1,11.38-10.93,35.26,35.26,0,0,1,32-.17A27.52,27.52,0,0,1,137.46,316a32.21,32.21,0,0,1,4,16.29C141.49,332.47,141.38,334,141.16,336.88Zm-40.32-19.1A14.12,14.12,0,0,0,96,326.83h29.27a14.27,14.27,0,0,0-4.86-9,14.5,14.5,0,0,0-9.72-3.37A14.84,14.84,0,0,0,100.84,317.78Z"/><path class="cls-5" d="M210.85,336.88H165.9a14,14,0,0,0,5.74,8.73,19,19,0,0,0,11.27,3.2,22.87,22.87,0,0,0,8.23-1.38,19.89,19.89,0,0,0,6.68-4.36L207,353q-8.4,9.62-24.52,9.61a38.89,38.89,0,0,1-17.79-3.92,28.73,28.73,0,0,1-11.92-10.88,30,30,0,0,1-4.2-15.8,30.41,30.41,0,0,1,4.14-15.74,29,29,0,0,1,11.38-10.93,35.24,35.24,0,0,1,32-.17A27.46,27.46,0,0,1,207.15,316a32.11,32.11,0,0,1,4,16.29C211.19,332.47,211.08,334,210.85,336.88Zm-40.31-19.1a14.12,14.12,0,0,0-4.86,9.05H195a14.27,14.27,0,0,0-4.86-9,14.5,14.5,0,0,0-9.72-3.37A14.84,14.84,0,0,0,170.54,317.78Z"/><path class="cls-5" d="M338.54,284.42l-25.3,77.32H294l-17-52.36-17.57,52.36H240.34l-25.4-77.32H233.5L251,338.76l18.22-54.34h16.57l17.67,54.78,18-54.78Z"/><path class="cls-5" d="M354.28,358.7a29.22,29.22,0,0,1-11.66-10.88,31.87,31.87,0,0,1,0-31.59,29.15,29.15,0,0,1,11.66-10.88,38,38,0,0,1,33.63,0,29.25,29.25,0,0,1,11.6,10.88,31.8,31.8,0,0,1,0,31.59,29.32,29.32,0,0,1-11.6,10.88,38,38,0,0,1-33.63,0ZM382,344q4.25-4.47,4.25-12T382,320a14.35,14.35,0,0,0-10.88-4.47A14.52,14.52,0,0,0,360.19,320q-4.32,4.47-4.31,12t4.31,12a14.52,14.52,0,0,0,10.93,4.47A14.35,14.35,0,0,0,382,344Z"/><path class="cls-5" d="M440,303.64a31,31,0,0,1,12.09-2.21v15.9c-1.91-.14-3.2-.22-3.86-.22q-7.41,0-11.6,4.14t-4.2,12.43v28.06H415.19V302.31h16.46v7.84A19.12,19.12,0,0,1,440,303.64Z"/><path class="cls-5" d="M487.87,338.43l-8.29,8.17v15.14H462.35v-82h17.23v46.39l25.19-23.86h20.54L500.57,327.5l26.95,34.24H506.64Z"/><path class="cls-5" d="M590.81,302.31,564,365.38q-4.1,10.28-10.11,14.47a24.72,24.72,0,0,1-14.52,4.2,30.12,30.12,0,0,1-9.17-1.44,20.23,20.23,0,0,1-7.4-4l6.3-12.26a14.63,14.63,0,0,0,4.58,2.76,14.13,14.13,0,0,0,5.14,1,9.11,9.11,0,0,0,5.74-1.71,14.59,14.59,0,0,0,4-5.69l.22-.55L523,302.31h17.79l16.67,40.32,16.79-40.32Z"/></g></g></svg>